<svg xmlns="http://www.w3.org/2000/svg" xmlns:xlink="http://www.w3.org/1999/xlink" width="40" zoomAndPan="magnify" viewBox="0 0 30 36.000001" height="40" preserveAspectRatio="xMidYMid meet" version="1.0"><defs><clipPath id="aad3341cda"><path d="M 6.65625 6.6875 L 23.4375 6.6875 L 23.4375 23.472656 L 6.65625 23.472656 Z M 6.65625 6.6875 " clip-rule="nonzero"/></clipPath></defs><g clip-path="url(#aad3341cda)"><path fill="#111827" d="M 15.132812 6.6875 C 10.449219 6.6875 6.65625 10.484375 6.65625 15.164062 C 6.65625 19.847656 10.449219 23.640625 15.132812 23.640625 C 19.816406 23.640625 23.609375 19.847656 23.609375 15.164062 C 23.609375 10.484375 19.816406 6.6875 15.132812 6.6875 Z M 20.296875 15.65625 C 20.296875 15.84375 20.171875 16.003906 19.992188 16.046875 L 19.007812 16.292969 C 18.925781 16.578125 18.8125 16.851562 18.671875 17.105469 L 19.195312 17.976562 C 19.289062 18.136719 19.265625 18.339844 19.132812 18.46875 L 18.4375 19.164062 C 18.304688 19.296875 18.101562 19.320312 17.945312 19.226562 L 17.074219 18.703125 C 16.820312 18.84375 16.546875 18.957031 16.261719 19.039062 L 16.015625 20.023438 C 15.972656 20.203125 15.808594 20.332031 15.625 20.332031 L 14.640625 20.332031 C 14.457031 20.332031 14.292969 20.203125 14.25 20.023438 L 14.003906 19.039062 C 13.71875 18.957031 13.445312 18.84375 13.191406 18.703125 L 12.320312 19.226562 C 12.160156 19.320312 11.957031 19.296875 11.828125 19.164062 L 11.132812 18.46875 C 11 18.339844 10.976562 18.136719 11.070312 17.976562 L 11.59375 17.105469 C 11.453125 16.851562 11.339844 16.578125 11.257812 16.292969 L 10.273438 16.046875 C 10.09375 16.003906 9.964844 15.84375 9.964844 15.65625 L 9.964844 14.671875 C 9.964844 14.488281 10.09375 14.328125 10.273438 14.28125 L 11.257812 14.035156 C 11.339844 13.75 11.453125 13.480469 11.59375 13.222656 L 11.070312 12.351562 C 10.976562 12.195312 11 11.992188 11.132812 11.859375 L 11.828125 11.164062 C 11.957031 11.035156 12.160156 11.007812 12.320312 11.105469 L 13.191406 11.625 C 13.445312 11.484375 13.71875 11.371094 14.003906 11.289062 L 14.25 10.304688 C 14.292969 10.125 14.457031 10 14.640625 10 L 15.625 10 C 15.808594 10 15.972656 10.125 16.015625 10.304688 L 16.261719 11.289062 C 16.546875 11.371094 16.820312 11.484375 17.074219 11.625 L 17.945312 11.105469 C 18.101562 11.007812 18.304688 11.035156 18.4375 11.164062 L 19.132812 11.859375 C 19.265625 11.992188 19.289062 12.195312 19.195312 12.351562 L 18.671875 13.222656 C 18.8125 13.480469 18.925781 13.75 19.007812 14.035156 L 19.992188 14.28125 C 20.171875 14.328125 20.296875 14.488281 20.296875 14.671875 Z M 20.296875 15.65625 " fill-opacity="1" fill-rule="nonzero"/></g><path fill="#111827" d="M 16.746094 15.164062 C 16.746094 15.378906 16.707031 15.585938 16.625 15.78125 C 16.542969 15.980469 16.425781 16.15625 16.273438 16.304688 C 16.121094 16.457031 15.949219 16.574219 15.75 16.65625 C 15.550781 16.738281 15.347656 16.78125 15.132812 16.78125 C 14.917969 16.78125 14.710938 16.738281 14.515625 16.65625 C 14.316406 16.574219 14.140625 16.457031 13.992188 16.304688 C 13.839844 16.15625 13.722656 15.980469 13.640625 15.78125 C 13.558594 15.585938 13.519531 15.378906 13.519531 15.164062 C 13.519531 14.949219 13.558594 14.746094 13.640625 14.546875 C 13.722656 14.347656 13.839844 14.175781 13.992188 14.023438 C 14.140625 13.871094 14.316406 13.753906 14.515625 13.671875 C 14.710938 13.589844 14.917969 13.550781 15.132812 13.550781 C 15.347656 13.550781 15.550781 13.589844 15.75 13.671875 C 15.949219 13.753906 16.121094 13.871094 16.273438 14.023438 C 16.425781 14.175781 16.542969 14.347656 16.625 14.546875 C 16.707031 14.746094 16.746094 14.949219 16.746094 15.164062 Z M 16.746094 15.164062 " fill-opacity="1" fill-rule="nonzero"/></svg>