<svg xmlns="http://www.w3.org/2000/svg" xmlns:xlink="http://www.w3.org/1999/xlink" width="40" zoomAndPan="magnify" viewBox="0 0 30 36.000001" height="40" preserveAspectRatio="xMidYMid meet" version="1.0"><defs><clipPath id="7c1aed3e55"><path d="M 6.390625 6.421875 L 23.902344 6.421875 L 23.902344 23.933594 L 6.390625 23.933594 Z M 6.390625 6.421875 " clip-rule="nonzero"/></clipPath></defs><g clip-path="url(#7c1aed3e55)"><path fill="#111827" d="M 14.976562 6.421875 C 10.234375 6.421875 6.378906 10.28125 6.378906 15.023438 C 6.378906 19.765625 10.234375 23.625 14.976562 23.625 C 19.71875 23.625 23.578125 19.765625 23.578125 15.023438 C 23.578125 10.28125 19.722656 6.421875 14.976562 6.421875 Z M 19.730469 14.394531 L 17.242188 16.195312 L 18.199219 19.128906 C 18.214844 19.171875 18.222656 19.222656 18.222656 19.273438 C 18.222656 19.527344 18.015625 19.734375 17.757812 19.734375 C 17.65625 19.734375 17.5625 19.703125 17.488281 19.648438 L 14.980469 17.832031 L 12.46875 19.648438 C 12.394531 19.703125 12.300781 19.734375 12.199219 19.734375 C 11.941406 19.734375 11.734375 19.527344 11.734375 19.273438 C 11.734375 19.222656 11.742188 19.171875 11.757812 19.128906 L 12.71875 16.195312 L 10.226562 14.394531 C 10.109375 14.3125 10.035156 14.175781 10.035156 14.019531 C 10.035156 13.765625 10.242188 13.558594 10.5 13.558594 L 13.582031 13.558594 L 14.535156 10.640625 C 14.59375 10.449219 14.769531 10.3125 14.980469 10.3125 C 15.1875 10.3125 15.363281 10.449219 15.421875 10.640625 L 16.375 13.558594 L 19.457031 13.558594 C 19.714844 13.558594 19.921875 13.765625 19.921875 14.019531 C 19.921875 14.175781 19.847656 14.3125 19.730469 14.394531 Z M 19.730469 14.394531 " fill-opacity="1" fill-rule="nonzero"/></g></svg>