<svg xmlns="http://www.w3.org/2000/svg" xmlns:xlink="http://www.w3.org/1999/xlink" width="40" zoomAndPan="magnify" viewBox="0 0 30 36.000001" height="40" preserveAspectRatio="xMidYMid meet" version="1.0"><defs><clipPath id="233cc3637e"><path d="M 8.414062 6.761719 L 21.550781 6.761719 L 21.550781 23.542969 L 8.414062 23.542969 Z M 8.414062 6.761719 " clip-rule="nonzero"/></clipPath></defs><g clip-path="url(#233cc3637e)"><path fill="#111827" d="M 16.824219 18.816406 C 18.421875 16.300781 20.167969 13.507812 20.167969 11.988281 C 20.167969 9.105469 17.820312 6.757812 14.941406 6.757812 C 12.058594 6.757812 9.710938 9.105469 9.710938 11.988281 C 9.710938 13.421875 11.527344 16.363281 13.070312 18.824219 C 10.808594 19.039062 8.421875 19.683594 8.421875 20.902344 C 8.421875 21.5625 9.140625 22.125 10.496094 22.519531 C 14.328125 23.632812 21.566406 23.007812 21.566406 20.902344 C 21.566406 19.664062 19.132812 19.019531 16.824219 18.816406 Z M 14.941406 20.5 C 13.570312 18.203125 10.414062 13.621094 10.414062 11.988281 C 10.414062 9.492188 12.445312 7.460938 14.941406 7.460938 C 17.433594 7.460938 19.464844 9.492188 19.464844 11.988281 C 19.464844 13.726562 16.324219 18.183594 14.941406 20.5 Z M 14.941406 20.5 " fill-opacity="1" fill-rule="nonzero"/></g><path fill="#111827" d="M 14.941406 9.273438 C 13.542969 9.273438 12.410156 10.40625 12.410156 11.804688 C 12.410156 13.199219 13.542969 14.332031 14.941406 14.332031 C 16.335938 14.332031 17.46875 13.199219 17.46875 11.804688 C 17.46875 10.40625 16.335938 9.273438 14.941406 9.273438 Z M 14.941406 13.628906 C 13.933594 13.628906 13.113281 12.8125 13.113281 11.804688 C 13.113281 10.796875 13.933594 9.976562 14.941406 9.976562 C 15.945312 9.976562 16.765625 10.796875 16.765625 11.804688 C 16.765625 12.8125 15.945312 13.628906 14.941406 13.628906 Z M 14.941406 13.628906 " fill-opacity="1" fill-rule="nonzero"/></svg>