<svg xmlns="http://www.w3.org/2000/svg" xmlns:xlink="http://www.w3.org/1999/xlink" width="40" zoomAndPan="magnify" viewBox="0 0 30 36.000001" height="40" preserveAspectRatio="xMidYMid meet" version="1.0"><defs><clipPath id="86906a9b92"><path d="M 6.664062 6.257812 L 23.445312 6.257812 L 23.445312 23 L 6.664062 23 Z M 6.664062 6.257812 " clip-rule="nonzero"/></clipPath></defs><g clip-path="url(#86906a9b92)"><path fill="#111827" d="M 14.996094 6.257812 C 10.394531 6.257812 6.664062 9.988281 6.664062 14.59375 C 6.664062 19.195312 10.394531 22.925781 14.996094 22.925781 C 19.601562 22.925781 23.332031 19.195312 23.332031 14.59375 C 23.332031 9.988281 19.601562 6.257812 14.996094 6.257812 Z M 20.347656 19.945312 C 19.652344 20.640625 18.84375 21.183594 17.941406 21.566406 C 17.011719 21.960938 16.019531 22.160156 14.996094 22.160156 C 13.976562 22.160156 12.984375 21.960938 12.050781 21.566406 C 11.152344 21.183594 10.339844 20.640625 9.644531 19.945312 C 8.953125 19.25 8.40625 18.4375 8.023438 17.539062 C 7.628906 16.605469 7.429688 15.613281 7.429688 14.59375 C 7.429688 13.570312 7.628906 12.578125 8.023438 11.648438 C 8.40625 10.746094 8.949219 9.9375 9.644531 9.242188 C 10.339844 8.546875 11.152344 8 12.050781 7.617188 C 12.984375 7.222656 13.976562 7.023438 14.996094 7.023438 C 16.019531 7.023438 17.011719 7.222656 17.941406 7.617188 C 18.84375 8 19.652344 8.546875 20.347656 9.242188 C 21.042969 9.9375 21.589844 10.746094 21.972656 11.648438 C 22.367188 12.578125 22.566406 13.570312 22.566406 14.59375 C 22.566406 15.613281 22.367188 16.605469 21.972656 17.539062 C 21.589844 18.4375 21.042969 19.25 20.347656 19.945312 Z M 20.347656 19.945312 " fill-opacity="1" fill-rule="nonzero"/></g><path fill="#111827" d="M 19.035156 10.492188 C 18.90625 10.371094 18.703125 10.382812 18.582031 10.511719 L 13.550781 16 L 11.414062 13.839844 C 11.261719 13.683594 11.007812 13.683594 10.851562 13.835938 L 9.800781 14.878906 C 9.664062 15.011719 9.660156 15.230469 9.796875 15.367188 L 13.316406 18.929688 C 13.476562 19.09375 13.738281 19.085938 13.894531 18.917969 L 20.210938 12.03125 C 20.335938 11.890625 20.328125 11.675781 20.1875 11.546875 Z M 19.035156 10.492188 " fill-opacity="1" fill-rule="nonzero"/></svg>