<svg xmlns="http://www.w3.org/2000/svg" xmlns:xlink="http://www.w3.org/1999/xlink" width="40" zoomAndPan="magnify" viewBox="0 0 30 36.000001" height="40" preserveAspectRatio="xMidYMid meet" version="1.0"><defs><clipPath id="6abdab762b"><path d="M 6.316406 6.496094 L 23.101562 6.496094 L 23.101562 23.277344 L 6.316406 23.277344 Z M 6.316406 6.496094 " clip-rule="nonzero"/></clipPath></defs><g clip-path="url(#6abdab762b)"><path fill="#111827" d="M 14.816406 6.496094 C 10.128906 6.496094 6.316406 10.308594 6.316406 14.996094 C 6.316406 19.683594 10.128906 23.496094 14.816406 23.496094 C 19.503906 23.496094 23.316406 19.683594 23.316406 14.996094 C 23.316406 10.308594 19.503906 6.496094 14.816406 6.496094 Z M 14.816406 22.898438 C 10.453125 22.898438 6.914062 19.359375 6.914062 14.996094 C 6.914062 10.628906 10.453125 7.089844 14.816406 7.089844 C 19.179688 7.089844 22.71875 10.628906 22.71875 14.996094 C 22.71875 19.359375 19.179688 22.898438 14.816406 22.898438 Z M 14.816406 22.898438 " fill-opacity="1" fill-rule="nonzero"/></g><path fill="#111827" d="M 18.417969 18.0625 C 18.949219 17.425781 18.558594 17.054688 18.207031 16.789062 C 17.855469 16.523438 17.03125 16.183594 16.777344 16.488281 C 16.523438 16.792969 16.117188 17.171875 15.804688 17.089844 C 15.273438 16.949219 14.601562 16.238281 14.085938 15.722656 C 13.574219 15.210938 12.859375 14.535156 12.722656 14.007812 C 12.636719 13.695312 12.992188 13.3125 13.324219 13.035156 C 13.65625 12.757812 13.308594 11.984375 13.019531 11.601562 C 12.734375 11.222656 12.386719 10.863281 11.75 11.390625 C 11.117188 11.921875 10.316406 13.328125 11.792969 15.46875 C 12.171875 16.019531 12.496094 16.335938 12.984375 16.824219 C 13.472656 17.3125 13.789062 17.640625 14.339844 18.019531 C 16.484375 19.496094 17.890625 18.695312 18.417969 18.0625 Z M 18.417969 18.0625 " fill-opacity="1" fill-rule="nonzero"/><path fill="#111827" d="M 16.644531 15.328125 C 16.460938 15.328125 16.363281 15.238281 16.347656 15.054688 C 16.3125 14.671875 16.160156 14.34375 15.886719 14.070312 C 15.613281 13.796875 15.285156 13.644531 14.902344 13.609375 C 14.820312 13.601562 14.75 13.566406 14.699219 13.503906 C 14.644531 13.441406 14.625 13.367188 14.628906 13.285156 C 14.636719 13.203125 14.671875 13.136719 14.734375 13.082031 C 14.800781 13.03125 14.871094 13.007812 14.953125 13.015625 C 15.210938 13.039062 15.453125 13.105469 15.6875 13.214844 C 15.917969 13.324219 16.125 13.46875 16.304688 13.648438 C 16.488281 13.832031 16.632812 14.039062 16.742188 14.269531 C 16.851562 14.5 16.917969 14.746094 16.941406 15 C 16.949219 15.082031 16.925781 15.15625 16.875 15.21875 C 16.820312 15.285156 16.753906 15.320312 16.671875 15.328125 Z M 16.644531 15.328125 " fill-opacity="1" fill-rule="nonzero"/><path fill="#111827" d="M 18.03125 15.34375 C 17.949219 15.34375 17.882812 15.316406 17.824219 15.261719 C 17.765625 15.207031 17.734375 15.136719 17.730469 15.058594 C 17.714844 14.6875 17.628906 14.332031 17.480469 13.996094 C 17.332031 13.65625 17.125 13.355469 16.863281 13.09375 C 16.601562 12.832031 16.300781 12.625 15.960938 12.476562 C 15.625 12.328125 15.269531 12.242188 14.898438 12.226562 C 14.816406 12.222656 14.746094 12.1875 14.691406 12.128906 C 14.636719 12.066406 14.609375 11.996094 14.613281 11.914062 C 14.617188 11.832031 14.652344 11.761719 14.710938 11.707031 C 14.773438 11.652344 14.84375 11.625 14.925781 11.628906 C 15.371094 11.648438 15.796875 11.75 16.203125 11.929688 C 16.609375 12.109375 16.96875 12.359375 17.285156 12.671875 C 17.597656 12.988281 17.847656 13.347656 18.027344 13.753906 C 18.207031 14.160156 18.308594 14.585938 18.328125 15.03125 C 18.332031 15.113281 18.304688 15.183594 18.25 15.246094 C 18.195312 15.304688 18.125 15.339844 18.042969 15.339844 Z M 18.03125 15.34375 " fill-opacity="1" fill-rule="nonzero"/></svg>