<svg xmlns="http://www.w3.org/2000/svg" xmlns:xlink="http://www.w3.org/1999/xlink" width="40" zoomAndPan="magnify" viewBox="0 0 30 36.000001" height="40" preserveAspectRatio="xMidYMid meet" version="1.0"><defs><clipPath id="dc105aeec9"><path d="M 6.277344 8 L 23.789062 8 L 23.789062 22.753906 L 6.277344 22.753906 Z M 6.277344 8 " clip-rule="nonzero"/></clipPath><clipPath id="3e015f4386"><path d="M 9 6.699219 L 12 6.699219 L 12 11 L 9 11 Z M 9 6.699219 " clip-rule="nonzero"/></clipPath><clipPath id="4e555193fc"><path d="M 18 6.699219 L 21 6.699219 L 21 11 L 18 11 Z M 18 6.699219 " clip-rule="nonzero"/></clipPath></defs><path fill="#111827" d="M 20.140625 16.757812 L 18.6875 18.214844 C 18.378906 18.523438 17.878906 18.523438 17.570312 18.214844 L 16.820312 17.464844 C 16.664062 17.308594 16.664062 17.058594 16.820312 16.90625 C 16.972656 16.75 17.222656 16.75 17.378906 16.90625 L 18.128906 17.65625 L 19.582031 16.199219 C 19.738281 16.046875 19.988281 16.046875 20.140625 16.199219 C 20.296875 16.355469 20.296875 16.605469 20.140625 16.757812 Z M 18.480469 14.78125 C 17.167969 14.78125 16.101562 15.851562 16.101562 17.164062 C 16.101562 18.476562 17.167969 19.542969 18.480469 19.542969 C 19.792969 19.542969 20.863281 18.476562 20.863281 17.164062 C 20.863281 15.851562 19.792969 14.78125 18.480469 14.78125 " fill-opacity="1" fill-rule="nonzero"/><g clip-path="url(#dc105aeec9)"><path fill="#111827" d="M 18.480469 20.203125 C 16.804688 20.203125 15.4375 18.839844 15.4375 17.164062 C 15.4375 15.484375 16.804688 14.121094 18.480469 14.121094 C 20.15625 14.121094 21.523438 15.484375 21.523438 17.164062 C 21.523438 18.839844 20.15625 20.203125 18.480469 20.203125 Z M 13.4375 16.484375 C 12.785156 16.484375 12.253906 15.953125 12.253906 15.300781 C 12.253906 14.976562 12.386719 14.679688 12.601562 14.464844 C 12.816406 14.253906 13.109375 14.121094 13.4375 14.121094 C 14.089844 14.121094 14.617188 14.648438 14.617188 15.300781 C 14.617188 15.953125 14.089844 16.484375 13.4375 16.484375 Z M 13.4375 20.203125 C 12.785156 20.203125 12.253906 19.675781 12.253906 19.023438 C 12.253906 18.695312 12.386719 18.402344 12.601562 18.1875 C 12.816406 17.972656 13.109375 17.839844 13.4375 17.839844 C 14.089844 17.839844 14.617188 18.371094 14.617188 19.023438 C 14.617188 19.675781 14.089844 20.203125 13.4375 20.203125 Z M 9.65625 16.484375 C 9.003906 16.484375 8.476562 15.953125 8.476562 15.300781 C 8.476562 14.976562 8.605469 14.679688 8.820312 14.464844 C 9.035156 14.253906 9.328125 14.121094 9.65625 14.121094 C 10.308594 14.121094 10.835938 14.648438 10.835938 15.300781 C 10.835938 15.953125 10.308594 16.484375 9.65625 16.484375 Z M 9.65625 20.203125 C 9.003906 20.203125 8.476562 19.675781 8.476562 19.023438 C 8.476562 18.695312 8.605469 18.402344 8.820312 18.1875 C 9.035156 17.972656 9.328125 17.839844 9.65625 17.839844 C 10.308594 17.839844 10.835938 18.371094 10.835938 19.023438 C 10.835938 19.675781 10.308594 20.203125 9.65625 20.203125 Z M 21.609375 8.113281 L 21.28125 8.113281 L 21.28125 9.214844 L 21.609375 9.214844 C 22.164062 9.214844 22.613281 9.664062 22.613281 10.21875 L 22.613281 11.570312 L 7.382812 11.570312 L 7.382812 10.21875 C 7.382812 9.664062 7.835938 9.214844 8.390625 9.214844 L 8.71875 9.214844 L 8.71875 8.113281 L 8.390625 8.113281 C 7.226562 8.113281 6.285156 9.058594 6.285156 10.21875 L 6.285156 20.375 C 6.285156 21.539062 7.226562 22.480469 8.390625 22.480469 L 21.609375 22.480469 C 22.769531 22.480469 23.714844 21.539062 23.714844 20.375 L 23.714844 10.21875 C 23.714844 9.058594 22.769531 8.113281 21.609375 8.113281 " fill-opacity="1" fill-rule="nonzero"/></g><path fill="#111827" d="M 17.707031 8.113281 L 12.289062 8.113281 L 12.289062 9.214844 L 17.707031 9.214844 L 17.707031 8.113281 " fill-opacity="1" fill-rule="nonzero"/><g clip-path="url(#3e015f4386)"><path fill="#111827" d="M 10.503906 10.390625 C 10.949219 10.390625 11.308594 10.03125 11.308594 9.585938 L 11.308594 7.503906 C 11.308594 7.0625 10.949219 6.699219 10.503906 6.699219 C 10.058594 6.699219 9.699219 7.0625 9.699219 7.503906 L 9.699219 9.585938 C 9.699219 10.03125 10.058594 10.390625 10.503906 10.390625 " fill-opacity="1" fill-rule="nonzero"/></g><g clip-path="url(#4e555193fc)"><path fill="#111827" d="M 19.492188 10.390625 C 19.9375 10.390625 20.296875 10.03125 20.296875 9.585938 L 20.296875 7.503906 C 20.296875 7.0625 19.9375 6.699219 19.492188 6.699219 C 19.050781 6.699219 18.6875 7.0625 18.6875 7.503906 L 18.6875 9.585938 C 18.6875 10.03125 19.050781 10.390625 19.492188 10.390625 " fill-opacity="1" fill-rule="nonzero"/></g></svg>
