<svg xmlns="http://www.w3.org/2000/svg" xmlns:xlink="http://www.w3.org/1999/xlink" width="40" zoomAndPan="magnify" viewBox="0 0 30 36.000001" height="40" preserveAspectRatio="xMidYMid meet" version="1.0"><defs><clipPath id="242ec2adb9"><path d="M 5.953125 5.984375 L 23.464844 5.984375 L 23.464844 23.496094 L 5.953125 23.496094 Z M 5.953125 5.984375 " clip-rule="nonzero"/></clipPath></defs><g clip-path="url(#242ec2adb9)"><path fill="#111827" d="M 14.777344 5.984375 C 9.898438 5.984375 5.953125 9.929688 5.953125 14.808594 C 5.953125 19.6875 9.898438 23.632812 14.777344 23.632812 C 19.652344 23.632812 23.601562 19.6875 23.601562 14.808594 C 23.601562 9.929688 19.65625 5.984375 14.777344 5.984375 Z M 14.777344 22.597656 C 10.484375 22.597656 6.988281 19.101562 6.988281 14.808594 C 6.988281 10.515625 10.484375 7.023438 14.777344 7.023438 C 19.070312 7.023438 22.5625 10.515625 22.5625 14.808594 C 22.5625 19.101562 19.070312 22.597656 14.777344 22.597656 Z M 14.777344 22.597656 " fill-opacity="1" fill-rule="nonzero"/></g><path fill="#111827" d="M 19.449219 17.921875 L 14.167969 17.921875 C 13.953125 17.320312 13.375 16.886719 12.699219 16.886719 C 12.023438 16.886719 11.445312 17.320312 11.230469 17.921875 L 10.105469 17.921875 C 9.816406 17.921875 9.585938 18.15625 9.585938 18.441406 C 9.585938 18.730469 9.816406 18.960938 10.105469 18.960938 L 11.230469 18.960938 C 11.445312 19.566406 12.023438 20 12.699219 20 C 13.375 20 13.953125 19.566406 14.167969 18.960938 L 19.449219 18.960938 C 19.734375 18.960938 19.96875 18.730469 19.96875 18.441406 C 19.96875 18.15625 19.734375 17.921875 19.449219 17.921875 Z M 19.449219 17.921875 " fill-opacity="1" fill-rule="nonzero"/><path fill="#111827" d="M 19.449219 11.175781 L 14.167969 11.175781 C 13.953125 10.570312 13.375 10.136719 12.699219 10.136719 C 12.023438 10.136719 11.445312 10.570312 11.230469 11.175781 L 10.105469 11.175781 C 9.816406 11.175781 9.585938 11.40625 9.585938 11.695312 C 9.585938 11.980469 9.816406 12.214844 10.105469 12.214844 L 11.230469 12.214844 C 11.445312 12.816406 12.023438 13.25 12.699219 13.25 C 13.375 13.25 13.953125 12.816406 14.167969 12.214844 L 19.449219 12.214844 C 19.734375 12.214844 19.96875 11.980469 19.96875 11.695312 C 19.96875 11.40625 19.734375 11.175781 19.449219 11.175781 Z M 19.449219 11.175781 " fill-opacity="1" fill-rule="nonzero"/><path fill="#111827" d="M 19.449219 14.289062 L 18.320312 14.289062 C 18.105469 13.6875 17.53125 13.25 16.851562 13.25 C 16.175781 13.25 15.597656 13.6875 15.386719 14.289062 L 10.105469 14.289062 C 9.816406 14.289062 9.585938 14.523438 9.585938 14.808594 C 9.585938 15.09375 9.816406 15.328125 10.105469 15.328125 L 15.386719 15.328125 C 15.597656 15.933594 16.175781 16.367188 16.851562 16.367188 C 17.53125 16.367188 18.105469 15.933594 18.320312 15.328125 L 19.449219 15.328125 C 19.734375 15.328125 19.96875 15.09375 19.96875 14.808594 C 19.96875 14.523438 19.734375 14.289062 19.449219 14.289062 Z M 19.449219 14.289062 " fill-opacity="1" fill-rule="nonzero"/></svg>