<svg xmlns="http://www.w3.org/2000/svg" xmlns:xlink="http://www.w3.org/1999/xlink" width="40" zoomAndPan="magnify" viewBox="0 0 30 36.000001" height="40" preserveAspectRatio="xMidYMid meet" version="1.0"><defs><clipPath id="aeaddafae8"><path d="M 8.339844 9.960938 L 21.652344 9.960938 L 21.652344 22.558594 L 8.339844 22.558594 Z M 8.339844 9.960938 " clip-rule="nonzero"/></clipPath><clipPath id="50469479e9"><path d="M 6.316406 6.628906 L 23.828125 6.628906 L 23.828125 15 L 6.316406 15 Z M 6.316406 6.628906 " clip-rule="nonzero"/></clipPath></defs><g clip-path="url(#aeaddafae8)"><path fill="#111827" d="M 21.566406 15.652344 L 15.28125 10.097656 C 15.121094 9.957031 14.875 9.957031 14.710938 10.097656 L 8.425781 15.652344 C 8.378906 15.691406 8.355469 15.75 8.355469 15.8125 L 8.355469 22.34375 C 8.355469 22.460938 8.449219 22.558594 8.570312 22.558594 L 12.988281 22.558594 C 13.105469 22.558594 13.203125 22.460938 13.203125 22.34375 L 13.203125 18.171875 C 13.203125 17.695312 13.589844 17.308594 14.0625 17.308594 L 15.929688 17.308594 C 16.40625 17.308594 16.792969 17.695312 16.792969 18.171875 L 16.792969 22.34375 C 16.792969 22.460938 16.886719 22.558594 17.007812 22.558594 L 21.425781 22.558594 C 21.542969 22.558594 21.640625 22.460938 21.640625 22.34375 L 21.640625 15.8125 C 21.640625 15.75 21.613281 15.691406 21.566406 15.652344 " fill-opacity="1" fill-rule="nonzero"/></g><g clip-path="url(#50469479e9)"><path fill="#111827" d="M 23.300781 13.496094 L 16.132812 7.199219 C 15.484375 6.628906 14.511719 6.628906 13.859375 7.199219 L 6.695312 13.496094 C 6.34375 13.808594 6.324219 14.351562 6.65625 14.683594 C 6.960938 14.988281 7.449219 15.003906 7.769531 14.71875 L 14.429688 8.855469 C 14.753906 8.570312 15.242188 8.570312 15.566406 8.855469 L 22.222656 14.71875 C 22.546875 15.003906 23.035156 14.988281 23.335938 14.683594 C 23.667969 14.351562 23.652344 13.808594 23.300781 13.496094 " fill-opacity="1" fill-rule="nonzero"/></g></svg>