<svg xmlns="http://www.w3.org/2000/svg" xmlns:xlink="http://www.w3.org/1999/xlink" width="40" zoomAndPan="magnify" viewBox="0 0 30 36.000001" height="40" preserveAspectRatio="xMidYMid meet" version="1.0"><defs><clipPath id="419179f13e"><path d="M 6.570312 6.441406 L 23.355469 6.441406 L 23.355469 23.222656 L 6.570312 23.222656 Z M 6.570312 6.441406 " clip-rule="nonzero"/></clipPath></defs><g clip-path="url(#419179f13e)"><path fill="#111827" d="M 14.972656 6.464844 C 10.363281 6.464844 6.621094 10.257812 6.621094 14.925781 C 6.621094 19.59375 10.375 23.386719 14.972656 23.386719 C 19.570312 23.386719 23.320312 19.59375 23.320312 14.925781 C 23.320312 10.257812 19.582031 6.464844 14.972656 6.464844 Z M 14.972656 21.695312 C 11.304688 21.695312 8.320312 18.660156 8.320312 14.933594 C 8.320312 11.207031 11.304688 8.171875 14.972656 8.171875 C 18.636719 8.171875 21.625 11.207031 21.625 14.933594 C 21.625 18.660156 18.636719 21.695312 14.972656 21.695312 Z M 15.820312 14.085938 L 19.15625 14.085938 L 19.15625 15.78125 L 15.820312 15.78125 L 15.820312 19.117188 L 14.125 19.117188 L 14.125 15.78125 L 10.789062 15.78125 L 10.789062 14.085938 L 14.125 14.085938 L 14.125 10.75 L 15.820312 10.75 Z M 15.820312 14.085938 " fill-opacity="1" fill-rule="nonzero"/></g></svg>