<svg xmlns="http://www.w3.org/2000/svg" xmlns:xlink="http://www.w3.org/1999/xlink" width="40" zoomAndPan="magnify" viewBox="0 0 30 36.000001" height="40" preserveAspectRatio="xMidYMid meet" version="1.0"><defs><clipPath id="c0d5c4e564"><path d="M 6.5 6.53125 L 23.28125 6.53125 L 23.28125 23.316406 L 6.5 23.316406 Z M 6.5 6.53125 " clip-rule="nonzero"/></clipPath></defs><g clip-path="url(#c0d5c4e564)"><path fill="#111827" d="M 15.550781 23.632812 L 14.550781 23.632812 C 14.496094 23.625 14.441406 23.609375 14.386719 23.601562 C 14.023438 23.550781 13.65625 23.527344 13.300781 23.453125 C 11.289062 23.015625 9.632812 21.996094 8.347656 20.386719 C 7.398438 19.195312 6.816406 17.847656 6.597656 16.339844 C 6.558594 16.089844 6.53125 15.835938 6.5 15.582031 C 6.5 15.25 6.5 14.914062 6.5 14.582031 C 6.507812 14.53125 6.527344 14.484375 6.527344 14.4375 C 6.5625 13.828125 6.675781 13.238281 6.851562 12.65625 C 7.347656 10.992188 8.269531 9.601562 9.605469 8.492188 C 10.824219 7.484375 12.222656 6.859375 13.792969 6.628906 C 14.042969 6.589844 14.296875 6.5625 14.550781 6.53125 C 14.882812 6.53125 15.21875 6.53125 15.550781 6.53125 C 15.605469 6.542969 15.65625 6.554688 15.710938 6.5625 C 16.074219 6.613281 16.441406 6.636719 16.800781 6.714844 C 18.8125 7.148438 20.46875 8.167969 21.753906 9.78125 C 22.699219 10.96875 23.285156 12.320312 23.503906 13.824219 C 23.542969 14.074219 23.570312 14.328125 23.601562 14.582031 L 23.601562 15.582031 C 23.589844 15.632812 23.574219 15.679688 23.570312 15.726562 C 23.535156 16.339844 23.417969 16.9375 23.242188 17.523438 C 22.746094 19.183594 21.828125 20.566406 20.496094 21.671875 C 19.277344 22.683594 17.878906 23.304688 16.308594 23.535156 C 16.058594 23.574219 15.804688 23.601562 15.550781 23.632812 Z M 12.738281 15.082031 C 12.738281 16.238281 12.738281 17.398438 12.738281 18.554688 C 12.738281 18.902344 12.886719 19.171875 13.195312 19.328125 C 13.492188 19.480469 13.785156 19.453125 14.0625 19.261719 C 15.730469 18.113281 17.40625 16.96875 19.074219 15.8125 C 19.652344 15.414062 19.652344 14.75 19.074219 14.351562 C 17.410156 13.199219 15.746094 12.054688 14.070312 10.917969 C 13.925781 10.816406 13.722656 10.753906 13.546875 10.75 C 13.066406 10.746094 12.742188 11.121094 12.738281 11.644531 C 12.738281 12.789062 12.738281 13.9375 12.738281 15.082031 Z M 12.738281 15.082031 " fill-opacity="1" fill-rule="nonzero"/></g><path fill="#ee2e72" d="M 19.074219 15.8125 C 17.40625 16.96875 15.730469 18.113281 14.0625 19.261719 C 13.785156 19.453125 13.492188 19.480469 13.195312 19.328125 C 12.886719 19.171875 12.738281 18.902344 12.738281 18.554688 L 12.738281 18.121094 C 12.738281 18.46875 12.886719 18.738281 13.195312 18.894531 C 13.492188 19.046875 13.785156 19.019531 14.0625 18.828125 C 15.730469 17.679688 17.40625 16.535156 19.074219 15.378906 C 19.285156 15.234375 19.417969 15.054688 19.476562 14.863281 C 19.578125 15.195312 19.441406 15.558594 19.074219 15.8125 Z M 19.074219 15.8125 " fill-opacity="1" fill-rule="nonzero"/><path fill="#ffffff" d="M 19.476562 14.867188 C 19.417969 15.054688 19.285156 15.234375 19.074219 15.378906 C 17.40625 16.535156 15.730469 17.679688 14.0625 18.828125 C 13.785156 19.019531 13.492188 19.046875 13.195312 18.894531 C 12.886719 18.738281 12.738281 18.46875 12.738281 18.121094 L 12.738281 14.648438 C 12.738281 13.992188 12.738281 13.335938 12.738281 12.679688 C 12.738281 12.535156 12.738281 12.394531 12.738281 12.253906 C 12.738281 12.050781 12.738281 11.847656 12.738281 11.644531 C 12.742188 11.121094 13.066406 10.746094 13.546875 10.75 C 13.722656 10.753906 13.925781 10.816406 14.070312 10.917969 C 15.746094 12.054688 17.410156 13.199219 19.074219 14.351562 C 19.285156 14.496094 19.417969 14.675781 19.476562 14.867188 Z M 19.476562 14.867188 " fill-opacity="1" fill-rule="nonzero"/><path fill="#50c5d6" d="M 19.476562 14.867188 C 19.417969 14.675781 19.285156 14.496094 19.074219 14.351562 C 17.410156 13.199219 15.746094 12.054688 14.070312 10.917969 C 13.925781 10.816406 13.722656 10.753906 13.546875 10.75 C 13.066406 10.746094 12.742188 11.121094 12.738281 11.644531 C 12.738281 11.847656 12.738281 12.050781 12.738281 12.253906 C 12.738281 11.90625 12.738281 11.558594 12.738281 11.210938 C 12.742188 10.6875 13.066406 10.3125 13.546875 10.316406 C 13.722656 10.320312 13.925781 10.382812 14.070312 10.484375 C 15.746094 11.621094 17.410156 12.765625 19.074219 13.917969 C 19.441406 14.171875 19.578125 14.535156 19.476562 14.867188 Z M 19.476562 14.867188 " fill-opacity="1" fill-rule="nonzero"/></svg>