<svg xmlns="http://www.w3.org/2000/svg" xmlns:xlink="http://www.w3.org/1999/xlink" width="40" zoomAndPan="magnify" viewBox="0 0 30 30.000001" height="40" preserveAspectRatio="xMidYMid meet" version="1.0"><defs><clipPath id="5d7f435e6d"><path d="M 6.050781 5.953125 L 23.46875 5.953125 L 23.46875 23.371094 L 6.050781 23.371094 Z M 6.050781 5.953125 " clip-rule="nonzero"/></clipPath></defs><g clip-path="url(#5d7f435e6d)"><path fill="#111827" d="M 20.96875 8.507812 C 19.324219 6.863281 17.144531 5.957031 14.816406 5.957031 C 10.023438 5.957031 6.125 9.859375 6.121094 14.652344 C 6.121094 16.183594 6.523438 17.679688 7.28125 19 L 6.050781 23.503906 L 10.660156 22.292969 C 11.929688 22.988281 13.359375 23.351562 14.8125 23.351562 L 14.816406 23.351562 C 19.609375 23.351562 23.511719 19.453125 23.511719 14.660156 C 23.511719 12.335938 22.609375 10.152344 20.964844 8.507812 Z M 14.816406 21.886719 L 14.8125 21.886719 C 13.519531 21.886719 12.246094 21.535156 11.136719 20.878906 L 10.871094 20.722656 L 8.136719 21.4375 L 8.867188 18.769531 L 8.695312 18.5 C 7.972656 17.347656 7.589844 16.019531 7.589844 14.652344 C 7.589844 10.667969 10.832031 7.425781 14.820312 7.425781 C 16.75 7.425781 18.5625 8.179688 19.929688 9.546875 C 21.292969 10.910156 22.042969 12.726562 22.042969 14.65625 C 22.042969 18.644531 18.800781 21.886719 14.816406 21.886719 Z M 18.78125 16.472656 C 18.5625 16.363281 17.496094 15.839844 17.296875 15.765625 C 17.097656 15.695312 16.953125 15.660156 16.808594 15.875 C 16.664062 16.09375 16.246094 16.582031 16.121094 16.726562 C 15.992188 16.871094 15.867188 16.890625 15.648438 16.78125 C 15.433594 16.671875 14.730469 16.441406 13.902344 15.703125 C 13.257812 15.125 12.820312 14.414062 12.691406 14.199219 C 12.566406 13.980469 12.679688 13.863281 12.789062 13.753906 C 12.886719 13.65625 13.003906 13.5 13.113281 13.375 C 13.222656 13.246094 13.257812 13.15625 13.332031 13.011719 C 13.40625 12.867188 13.367188 12.738281 13.3125 12.628906 C 13.257812 12.519531 12.824219 11.453125 12.644531 11.015625 C 12.46875 10.59375 12.289062 10.652344 12.15625 10.644531 C 12.027344 10.636719 11.882812 10.636719 11.738281 10.636719 C 11.59375 10.636719 11.359375 10.691406 11.160156 10.90625 C 10.960938 11.125 10.398438 11.652344 10.398438 12.71875 C 10.398438 13.789062 11.175781 14.820312 11.285156 14.96875 C 11.394531 15.113281 12.820312 17.308594 15 18.25 C 15.515625 18.472656 15.921875 18.605469 16.238281 18.707031 C 16.757812 18.871094 17.230469 18.847656 17.605469 18.792969 C 18.023438 18.730469 18.890625 18.265625 19.070312 17.757812 C 19.253906 17.25 19.253906 16.816406 19.199219 16.726562 C 19.144531 16.632812 19 16.582031 18.78125 16.472656 Z M 18.78125 16.472656 " fill-opacity="1" fill-rule="evenodd"/></g></svg>