<svg xmlns="http://www.w3.org/2000/svg" xmlns:xlink="http://www.w3.org/1999/xlink" width="40" zoomAndPan="magnify" viewBox="0 0 30 36.000001" height="40" preserveAspectRatio="xMidYMid meet" version="1.0"><defs><clipPath id="3642425c4b"><path d="M 6.316406 8.253906 L 23.828125 8.253906 L 23.828125 20.660156 L 6.316406 20.660156 Z M 6.316406 8.253906 " clip-rule="nonzero"/></clipPath></defs><g clip-path="url(#3642425c4b)"><path fill="#111827" d="M 22.117188 10.988281 L 19.0625 10.988281 L 17.996094 9.011719 C 17.875 8.789062 17.707031 8.613281 17.488281 8.484375 C 17.269531 8.351562 17.035156 8.285156 16.78125 8.285156 L 13.234375 8.285156 C 12.976562 8.285156 12.738281 8.351562 12.515625 8.488281 C 12.292969 8.621094 12.125 8.804688 12.003906 9.03125 L 10.988281 10.988281 L 10.308594 10.988281 C 10.304688 10.871094 10.261719 10.773438 10.175781 10.691406 C 10.09375 10.609375 9.992188 10.570312 9.875 10.570312 L 9.640625 10.570312 C 9.597656 10.460938 9.515625 10.40625 9.398438 10.40625 L 8.761719 10.40625 C 8.648438 10.40625 8.566406 10.460938 8.523438 10.570312 L 8.296875 10.570312 C 8.179688 10.570312 8.078125 10.609375 7.996094 10.691406 C 7.910156 10.773438 7.867188 10.871094 7.863281 10.988281 C 7.65625 10.988281 7.457031 11.03125 7.269531 11.113281 C 7.078125 11.191406 6.914062 11.304688 6.769531 11.453125 C 6.625 11.597656 6.511719 11.765625 6.433594 11.957031 C 6.355469 12.148438 6.316406 12.34375 6.316406 12.550781 L 6.316406 19.335938 C 6.316406 19.542969 6.355469 19.742188 6.433594 19.933594 C 6.515625 20.125 6.628906 20.296875 6.773438 20.441406 C 6.921875 20.589844 7.089844 20.703125 7.28125 20.78125 C 7.472656 20.859375 7.671875 20.898438 7.878906 20.898438 L 22.117188 20.898438 C 22.324219 20.898438 22.523438 20.859375 22.714844 20.78125 C 22.90625 20.703125 23.078125 20.589844 23.222656 20.441406 C 23.371094 20.296875 23.484375 20.125 23.5625 19.933594 C 23.640625 19.742188 23.679688 19.542969 23.679688 19.335938 L 23.679688 12.542969 C 23.679688 12.335938 23.640625 12.136719 23.558594 11.945312 C 23.480469 11.757812 23.367188 11.589844 23.21875 11.441406 C 23.074219 11.296875 22.90625 11.183594 22.714844 11.105469 C 22.523438 11.027344 22.324219 10.988281 22.117188 10.988281 Z M 15 19.671875 C 14.71875 19.671875 14.445312 19.644531 14.171875 19.589844 C 13.898438 19.535156 13.632812 19.453125 13.375 19.347656 C 13.117188 19.242188 12.871094 19.109375 12.640625 18.957031 C 12.40625 18.800781 12.191406 18.625 11.996094 18.429688 C 11.796875 18.230469 11.621094 18.015625 11.46875 17.785156 C 11.3125 17.554688 11.183594 17.308594 11.074219 17.050781 C 10.96875 16.792969 10.886719 16.527344 10.832031 16.253906 C 10.777344 15.980469 10.75 15.703125 10.75 15.425781 C 10.75 15.148438 10.777344 14.871094 10.832031 14.597656 C 10.886719 14.324219 10.96875 14.058594 11.074219 13.800781 C 11.179688 13.542969 11.3125 13.296875 11.464844 13.066406 C 11.621094 12.835938 11.796875 12.621094 11.996094 12.421875 C 12.191406 12.226562 12.40625 12.050781 12.636719 11.894531 C 12.871094 11.738281 13.113281 11.609375 13.371094 11.503906 C 13.628906 11.394531 13.894531 11.316406 14.167969 11.261719 C 14.441406 11.207031 14.71875 11.179688 14.996094 11.179688 C 15.273438 11.179688 15.550781 11.207031 15.824219 11.261719 C 16.097656 11.316406 16.363281 11.394531 16.621094 11.5 C 16.878906 11.609375 17.125 11.738281 17.355469 11.894531 C 17.585938 12.050781 17.800781 12.226562 18 12.421875 C 18.195312 12.621094 18.371094 12.832031 18.527344 13.066406 C 18.683594 13.296875 18.8125 13.542969 18.917969 13.800781 C 19.027344 14.058594 19.105469 14.324219 19.160156 14.597656 C 19.214844 14.871094 19.242188 15.144531 19.242188 15.425781 C 19.242188 15.703125 19.214844 15.980469 19.160156 16.253906 C 19.105469 16.527344 19.027344 16.792969 18.917969 17.050781 C 18.8125 17.304688 18.683594 17.550781 18.527344 17.78125 C 18.371094 18.015625 18.195312 18.230469 18 18.425781 C 17.804688 18.625 17.589844 18.800781 17.355469 18.953125 C 17.125 19.109375 16.878906 19.238281 16.625 19.347656 C 16.367188 19.453125 16.101562 19.535156 15.828125 19.589844 C 15.554688 19.644531 15.277344 19.671875 15 19.671875 Z M 22.074219 13.429688 C 21.878906 13.429688 21.710938 13.363281 21.570312 13.222656 C 21.433594 13.085938 21.363281 12.917969 21.363281 12.722656 C 21.363281 12.527344 21.433594 12.359375 21.570312 12.222656 C 21.710938 12.082031 21.875 12.015625 22.074219 12.015625 C 22.269531 12.015625 22.433594 12.082031 22.574219 12.222656 C 22.710938 12.359375 22.78125 12.527344 22.78125 12.722656 C 22.78125 12.917969 22.710938 13.085938 22.574219 13.222656 C 22.433594 13.363281 22.269531 13.429688 22.074219 13.429688 Z M 22.074219 13.429688 " fill-opacity="1" fill-rule="nonzero"/></g><path fill="#111827" d="M 17.957031 15.425781 C 17.957031 15.816406 17.882812 16.195312 17.734375 16.558594 C 17.582031 16.917969 17.367188 17.238281 17.089844 17.515625 C 16.8125 17.792969 16.492188 18.007812 16.132812 18.160156 C 15.769531 18.308594 15.390625 18.382812 15 18.382812 C 14.605469 18.382812 14.230469 18.308594 13.867188 18.160156 C 13.503906 18.007812 13.183594 17.792969 12.90625 17.515625 C 12.628906 17.238281 12.414062 16.917969 12.265625 16.558594 C 12.113281 16.195312 12.039062 15.816406 12.039062 15.425781 C 12.039062 15.03125 12.113281 14.65625 12.265625 14.292969 C 12.414062 13.929688 12.628906 13.609375 12.90625 13.332031 C 13.183594 13.054688 13.503906 12.839844 13.867188 12.691406 C 14.230469 12.539062 14.605469 12.464844 15 12.464844 C 15.390625 12.464844 15.769531 12.539062 16.132812 12.691406 C 16.492188 12.839844 16.8125 13.054688 17.089844 13.332031 C 17.367188 13.609375 17.582031 13.929688 17.734375 14.292969 C 17.882812 14.65625 17.957031 15.03125 17.957031 15.425781 Z M 17.957031 15.425781 " fill-opacity="1" fill-rule="nonzero"/></svg>