<svg xmlns="http://www.w3.org/2000/svg" xmlns:xlink="http://www.w3.org/1999/xlink" width="40" zoomAndPan="magnify" viewBox="0 0 30 36.000001" height="40" preserveAspectRatio="xMidYMid meet" version="1.0"><defs><clipPath id="3ee13dccc9"><path d="M 6.390625 5.984375 L 23.902344 5.984375 L 23.902344 23.496094 L 6.390625 23.496094 Z M 6.390625 5.984375 " clip-rule="nonzero"/></clipPath></defs><g clip-path="url(#3ee13dccc9)"><path fill="#111827" d="M 19.253906 5.984375 L 17.980469 5.984375 L 19.753906 9.089844 L 23.421875 9.089844 C 22.882812 7.296875 21.21875 5.984375 19.253906 5.984375 Z M 18.242188 16.726562 C 18.242188 16.421875 18.082031 16.144531 17.820312 15.992188 L 13.585938 13.546875 C 13.324219 13.394531 13 13.394531 12.738281 13.546875 C 12.476562 13.699219 12.316406 13.976562 12.316406 14.28125 L 12.316406 19.167969 C 12.316406 19.472656 12.476562 19.75 12.738281 19.902344 C 12.871094 19.976562 13.015625 20.015625 13.164062 20.015625 C 13.308594 20.015625 13.457031 19.976562 13.585938 19.902344 L 17.820312 17.457031 C 18.082031 17.308594 18.242188 17.027344 18.242188 16.726562 Z M 23.605469 18.847656 C 23.605469 21.25 21.652344 23.199219 19.253906 23.199219 L 10.742188 23.199219 C 8.339844 23.199219 6.390625 21.25 6.390625 18.847656 L 6.390625 10.78125 L 23.605469 10.78125 Z M 16.046875 5.984375 L 12.03125 5.984375 L 13.804688 9.089844 L 17.804688 9.089844 L 16.109375 6.121094 C 16.082031 6.078125 16.0625 6.03125 16.046875 5.984375 Z M 10.117188 6.035156 C 10.132812 6.0625 10.140625 6.09375 10.15625 6.121094 L 11.855469 9.089844 L 6.574219 9.089844 C 7.054688 7.488281 8.429688 6.277344 10.117188 6.035156 " fill-opacity="1" fill-rule="nonzero"/></g></svg>