<svg xmlns="http://www.w3.org/2000/svg" xmlns:xlink="http://www.w3.org/1999/xlink" width="40" zoomAndPan="magnify" viewBox="0 0 30 36.000001" height="40" preserveAspectRatio="xMidYMid meet" version="1.0"><defs><clipPath id="a2e8acd2a4"><path d="M 6 6.464844 L 23.464844 6.464844 L 23.464844 23.25 L 6 23.25 Z M 6 6.464844 " clip-rule="nonzero"/></clipPath></defs><g clip-path="url(#a2e8acd2a4)"><path fill="#111827" d="M 12.039062 12.933594 C 11.875 12.769531 11.792969 12.570312 11.792969 12.335938 C 11.792969 12.105469 11.875 11.90625 12.039062 11.742188 C 12.199219 11.578125 12.398438 11.496094 12.625 11.496094 C 12.855469 11.496094 13.054688 11.578125 13.214844 11.742188 L 15.121094 13.679688 L 17.03125 11.753906 C 17.195312 11.589844 17.390625 11.507812 17.621094 11.507812 C 17.851562 11.507812 18.046875 11.589844 18.210938 11.753906 C 18.375 11.917969 18.457031 12.117188 18.457031 12.347656 C 18.457031 12.582031 18.375 12.78125 18.210938 12.945312 L 16.300781 14.855469 L 18.210938 16.78125 C 18.371094 16.945312 18.453125 17.140625 18.453125 17.371094 C 18.453125 17.601562 18.371094 17.796875 18.210938 17.960938 C 18.050781 18.128906 17.851562 18.210938 17.621094 18.210938 C 17.390625 18.210938 17.195312 18.128906 17.03125 17.960938 L 15.121094 16.046875 L 13.210938 17.964844 C 13.050781 18.132812 12.851562 18.214844 12.621094 18.214844 C 12.390625 18.214844 12.195312 18.132812 12.03125 17.964844 C 11.871094 17.804688 11.789062 17.605469 11.789062 17.375 C 11.789062 17.148438 11.871094 16.949219 12.03125 16.789062 L 13.941406 14.855469 Z M 23.449219 14.855469 C 23.453125 15.96875 23.242188 17.039062 22.820312 18.070312 C 22.398438 19.097656 21.796875 20.007812 21.011719 20.796875 C 20.628906 21.1875 20.207031 21.535156 19.753906 21.84375 C 19.300781 22.148438 18.820312 22.410156 18.3125 22.621094 C 17.808594 22.832031 17.285156 22.992188 16.75 23.097656 C 16.210938 23.207031 15.667969 23.261719 15.121094 23.261719 C 14.574219 23.261719 14.03125 23.207031 13.492188 23.097656 C 12.953125 22.992188 12.433594 22.832031 11.925781 22.621094 C 11.421875 22.410156 10.941406 22.148438 10.488281 21.84375 C 10.03125 21.535156 9.613281 21.1875 9.226562 20.796875 C 8.839844 20.40625 8.496094 19.980469 8.191406 19.519531 C 7.890625 19.0625 7.632812 18.578125 7.421875 18.066406 C 7.214844 17.558594 7.058594 17.035156 6.949219 16.492188 C 6.84375 15.953125 6.789062 15.40625 6.789062 14.855469 C 6.789062 14.304688 6.84375 13.761719 6.949219 13.222656 C 7.058594 12.679688 7.214844 12.15625 7.421875 11.648438 C 7.632812 11.136719 7.890625 10.652344 8.191406 10.195312 C 8.496094 9.734375 8.839844 9.308594 9.226562 8.917969 C 9.613281 8.527344 10.03125 8.179688 10.488281 7.871094 C 10.941406 7.566406 11.421875 7.304688 11.925781 7.09375 C 12.433594 6.882812 12.953125 6.722656 13.492188 6.617188 C 14.03125 6.507812 14.574219 6.453125 15.121094 6.453125 C 15.667969 6.453125 16.210938 6.507812 16.75 6.617188 C 17.285156 6.722656 17.808594 6.882812 18.3125 7.09375 C 18.820312 7.304688 19.300781 7.566406 19.753906 7.871094 C 20.207031 8.179688 20.628906 8.527344 21.011719 8.917969 C 21.796875 9.707031 22.398438 10.617188 22.820312 11.644531 C 23.242188 12.675781 23.453125 13.746094 23.449219 14.855469 Z M 19.835938 19.613281 C 20.144531 19.296875 20.421875 18.957031 20.664062 18.589844 C 20.90625 18.222656 21.113281 17.835938 21.28125 17.425781 C 21.445312 17.019531 21.574219 16.597656 21.660156 16.167969 C 21.742188 15.734375 21.785156 15.296875 21.785156 14.855469 C 21.785156 14.417969 21.742188 13.980469 21.660156 13.546875 C 21.574219 13.113281 21.445312 12.695312 21.28125 12.289062 C 21.113281 11.878906 20.90625 11.492188 20.664062 11.125 C 20.421875 10.757812 20.144531 10.417969 19.835938 10.101562 C 19.527344 9.789062 19.191406 9.511719 18.828125 9.265625 C 18.464844 9.019531 18.082031 8.8125 17.675781 8.644531 C 17.269531 8.472656 16.855469 8.347656 16.421875 8.261719 C 15.992188 8.175781 15.558594 8.128906 15.121094 8.128906 C 14.683594 8.128906 14.246094 8.175781 13.816406 8.261719 C 13.386719 8.347656 12.96875 8.472656 12.566406 8.644531 C 12.160156 8.8125 11.777344 9.019531 11.414062 9.265625 C 11.050781 9.511719 10.714844 9.789062 10.40625 10.101562 C 10.097656 10.417969 9.820312 10.757812 9.578125 11.125 C 9.335938 11.492188 9.128906 11.878906 8.960938 12.289062 C 8.792969 12.695312 8.667969 13.113281 8.582031 13.546875 C 8.496094 13.980469 8.453125 14.417969 8.453125 14.855469 C 8.453125 15.296875 8.496094 15.734375 8.582031 16.167969 C 8.667969 16.597656 8.792969 17.019531 8.960938 17.425781 C 9.128906 17.835938 9.335938 18.222656 9.578125 18.589844 C 9.820312 18.957031 10.097656 19.296875 10.40625 19.613281 C 10.714844 19.925781 11.050781 20.203125 11.414062 20.449219 C 11.777344 20.695312 12.160156 20.902344 12.566406 21.070312 C 12.96875 21.238281 13.386719 21.367188 13.816406 21.453125 C 14.246094 21.539062 14.683594 21.582031 15.121094 21.582031 C 15.558594 21.582031 15.992188 21.539062 16.421875 21.453125 C 16.855469 21.367188 17.269531 21.238281 17.675781 21.070312 C 18.082031 20.902344 18.464844 20.695312 18.828125 20.449219 C 19.191406 20.203125 19.527344 19.925781 19.835938 19.613281 Z M 19.835938 19.613281 " fill-opacity="1" fill-rule="nonzero"/></g></svg>