<svg xmlns="http://www.w3.org/2000/svg" xmlns:xlink="http://www.w3.org/1999/xlink" width="40" zoomAndPan="magnify" viewBox="0 0 30 36.000001" height="40" preserveAspectRatio="xMidYMid meet" version="1.0"><defs><clipPath id="96902437ee"><path d="M 6.242188 6.277344 L 23.757812 6.277344 L 23.757812 23.789062 L 6.242188 23.789062 Z M 6.242188 6.277344 " clip-rule="nonzero"/></clipPath></defs><g clip-path="url(#96902437ee)"><path fill="#111827" d="M 14.925781 6.277344 C 10.132812 6.277344 6.246094 10.164062 6.246094 14.957031 C 6.246094 19.75 10.132812 23.636719 14.925781 23.636719 C 19.71875 23.636719 23.605469 19.75 23.605469 14.957031 C 23.605469 10.164062 19.71875 6.277344 14.925781 6.277344 Z M 14.925781 22.636719 C 10.6875 22.636719 7.25 19.199219 7.25 14.957031 C 7.25 10.71875 10.6875 7.28125 14.925781 7.28125 C 19.164062 7.28125 22.601562 10.71875 22.601562 14.957031 C 22.601562 19.199219 19.164062 22.636719 14.925781 22.636719 Z M 14.925781 22.636719 " fill-opacity="1" fill-rule="nonzero"/></g><path fill="#111827" d="M 16.304688 14.957031 C 16.304688 15.140625 16.269531 15.316406 16.199219 15.484375 C 16.128906 15.65625 16.03125 15.804688 15.902344 15.933594 C 15.773438 16.0625 15.621094 16.164062 15.453125 16.234375 C 15.285156 16.304688 15.109375 16.335938 14.925781 16.335938 C 14.742188 16.335938 14.566406 16.304688 14.398438 16.234375 C 14.230469 16.164062 14.078125 16.0625 13.949219 15.933594 C 13.820312 15.804688 13.722656 15.65625 13.652344 15.484375 C 13.582031 15.316406 13.546875 15.140625 13.546875 14.957031 C 13.546875 14.773438 13.582031 14.597656 13.652344 14.429688 C 13.722656 14.261719 13.820312 14.113281 13.949219 13.984375 C 14.078125 13.851562 14.230469 13.753906 14.398438 13.683594 C 14.566406 13.613281 14.742188 13.578125 14.925781 13.578125 C 15.109375 13.578125 15.285156 13.613281 15.453125 13.683594 C 15.621094 13.753906 15.773438 13.851562 15.902344 13.984375 C 16.03125 14.113281 16.128906 14.261719 16.199219 14.429688 C 16.269531 14.597656 16.304688 14.773438 16.304688 14.957031 Z M 16.304688 14.957031 " fill-opacity="1" fill-rule="nonzero"/><path fill="#111827" d="M 11.617188 14.957031 C 11.617188 15.140625 11.582031 15.316406 11.511719 15.484375 C 11.441406 15.65625 11.34375 15.804688 11.210938 15.933594 C 11.082031 16.0625 10.933594 16.164062 10.765625 16.234375 C 10.597656 16.304688 10.421875 16.335938 10.238281 16.335938 C 10.054688 16.335938 9.878906 16.304688 9.710938 16.234375 C 9.539062 16.164062 9.390625 16.0625 9.261719 15.933594 C 9.132812 15.804688 9.03125 15.65625 8.960938 15.484375 C 8.894531 15.316406 8.859375 15.140625 8.859375 14.957031 C 8.859375 14.773438 8.894531 14.597656 8.960938 14.429688 C 9.03125 14.261719 9.132812 14.113281 9.261719 13.984375 C 9.390625 13.851562 9.539062 13.753906 9.710938 13.683594 C 9.878906 13.613281 10.054688 13.578125 10.238281 13.578125 C 10.421875 13.578125 10.597656 13.613281 10.765625 13.683594 C 10.933594 13.753906 11.082031 13.851562 11.210938 13.984375 C 11.34375 14.113281 11.441406 14.261719 11.511719 14.429688 C 11.582031 14.597656 11.617188 14.773438 11.617188 14.957031 Z M 11.617188 14.957031 " fill-opacity="1" fill-rule="nonzero"/><path fill="#111827" d="M 20.992188 14.957031 C 20.992188 15.140625 20.960938 15.316406 20.890625 15.484375 C 20.820312 15.65625 20.71875 15.804688 20.589844 15.933594 C 20.460938 16.0625 20.3125 16.164062 20.140625 16.234375 C 19.972656 16.304688 19.796875 16.335938 19.613281 16.335938 C 19.429688 16.335938 19.253906 16.304688 19.085938 16.234375 C 18.917969 16.164062 18.769531 16.0625 18.640625 15.933594 C 18.507812 15.804688 18.410156 15.65625 18.339844 15.484375 C 18.269531 15.316406 18.234375 15.140625 18.234375 14.957031 C 18.234375 14.773438 18.269531 14.597656 18.339844 14.429688 C 18.410156 14.261719 18.507812 14.113281 18.640625 13.984375 C 18.769531 13.851562 18.917969 13.753906 19.085938 13.683594 C 19.253906 13.613281 19.429688 13.578125 19.613281 13.578125 C 19.796875 13.578125 19.972656 13.613281 20.140625 13.683594 C 20.3125 13.753906 20.460938 13.851562 20.589844 13.984375 C 20.71875 14.113281 20.820312 14.261719 20.890625 14.429688 C 20.960938 14.597656 20.992188 14.773438 20.992188 14.957031 Z M 20.992188 14.957031 " fill-opacity="1" fill-rule="nonzero"/></svg>