<svg xmlns="http://www.w3.org/2000/svg" xmlns:xlink="http://www.w3.org/1999/xlink" width="40" zoomAndPan="magnify" viewBox="0 0 30 36.000001" height="40" preserveAspectRatio="xMidYMid meet" version="1.0"><defs><clipPath id="34abe4b081"><path d="M 11 6.128906 L 19 6.128906 L 19 19 L 11 19 Z M 11 6.128906 " clip-rule="nonzero"/></clipPath><clipPath id="3886ea6a1d"><path d="M 8.746094 13 L 21 13 L 21 23.644531 L 8.746094 23.644531 Z M 8.746094 13 " clip-rule="nonzero"/></clipPath></defs><g clip-path="url(#34abe4b081)"><path fill="#111827" d="M 18.050781 12.367188 C 18.050781 13.261719 18.0625 14.15625 18.050781 15.050781 C 18.023438 15.472656 17.917969 15.875 17.738281 16.253906 C 17.554688 16.636719 17.3125 16.972656 17.003906 17.261719 C 16.695312 17.546875 16.347656 17.769531 15.953125 17.925781 C 15.5625 18.078125 15.15625 18.15625 14.734375 18.15625 C 14.3125 18.15625 13.902344 18.078125 13.511719 17.925781 C 13.121094 17.769531 12.769531 17.546875 12.460938 17.261719 C 12.152344 16.972656 11.910156 16.636719 11.726562 16.253906 C 11.546875 15.875 11.445312 15.472656 11.414062 15.050781 C 11.398438 13.253906 11.398438 11.445312 11.414062 9.636719 C 11.425781 9.285156 11.488281 8.945312 11.605469 8.613281 C 11.722656 8.285156 11.886719 7.980469 12.101562 7.699219 C 12.3125 7.421875 12.5625 7.183594 12.851562 6.984375 C 13.140625 6.785156 13.453125 6.636719 13.789062 6.535156 C 14.125 6.4375 14.46875 6.390625 14.820312 6.398438 C 15.171875 6.40625 15.511719 6.46875 15.84375 6.585938 C 16.171875 6.703125 16.476562 6.867188 16.757812 7.082031 C 17.035156 7.292969 17.273438 7.542969 17.472656 7.832031 C 17.859375 8.386719 18.050781 9 18.050781 9.675781 C 18.050781 10.574219 18.050781 11.472656 18.050781 12.367188 Z M 18.050781 12.367188 " fill-opacity="1" fill-rule="nonzero"/></g><g clip-path="url(#3886ea6a1d)"><path fill="#111827" d="M 15.417969 20.933594 L 15.417969 22.242188 C 15.527344 22.261719 15.636719 22.273438 15.746094 22.277344 C 16.414062 22.277344 17.082031 22.277344 17.75 22.277344 C 17.890625 22.273438 18.027344 22.285156 18.164062 22.3125 C 18.332031 22.339844 18.46875 22.417969 18.574219 22.550781 C 18.679688 22.679688 18.726562 22.832031 18.71875 23 C 18.703125 23.164062 18.636719 23.304688 18.519531 23.421875 C 18.402344 23.539062 18.261719 23.605469 18.097656 23.621094 C 17.996094 23.628906 17.898438 23.628906 17.796875 23.621094 C 15.757812 23.621094 13.710938 23.621094 11.65625 23.621094 C 11.542969 23.632812 11.429688 23.632812 11.316406 23.621094 C 11.164062 23.59375 11.03125 23.523438 10.925781 23.40625 C 10.824219 23.292969 10.761719 23.15625 10.75 23 C 10.742188 22.835938 10.785156 22.691406 10.886719 22.558594 C 10.984375 22.429688 11.113281 22.347656 11.273438 22.316406 C 11.410156 22.285156 11.550781 22.273438 11.691406 22.277344 C 12.3125 22.277344 12.9375 22.277344 13.558594 22.277344 L 14.007812 22.277344 L 14.007812 20.960938 C 13.628906 20.863281 13.25 20.800781 12.890625 20.675781 C 10.777344 19.941406 9.445312 18.46875 8.898438 16.289062 C 8.828125 15.996094 8.789062 15.703125 8.78125 15.402344 C 8.757812 14.835938 8.757812 14.265625 8.765625 13.695312 C 8.765625 13.511719 8.828125 13.355469 8.953125 13.226562 C 9.082031 13.09375 9.234375 13.027344 9.417969 13.023438 C 9.601562 13.023438 9.757812 13.085938 9.886719 13.210938 C 10.019531 13.339844 10.085938 13.492188 10.089844 13.675781 C 10.113281 14.15625 10.089844 14.640625 10.101562 15.128906 C 10.144531 16.871094 10.984375 18.148438 12.445312 19.039062 C 12.890625 19.296875 13.371094 19.472656 13.875 19.566406 C 14.382812 19.664062 14.890625 19.675781 15.402344 19.597656 C 15.914062 19.523438 16.398438 19.367188 16.855469 19.128906 C 17.3125 18.890625 17.71875 18.582031 18.074219 18.207031 C 18.925781 17.34375 19.355469 16.304688 19.359375 15.09375 C 19.359375 14.695312 19.359375 14.296875 19.359375 13.898438 C 19.355469 13.785156 19.363281 13.671875 19.382812 13.558594 C 19.414062 13.398438 19.492188 13.269531 19.617188 13.167969 C 19.746094 13.066406 19.890625 13.019531 20.050781 13.027344 C 20.214844 13.027344 20.359375 13.082031 20.480469 13.195312 C 20.597656 13.308594 20.664062 13.445312 20.675781 13.609375 C 20.839844 15.808594 20.492188 17.835938 18.75 19.410156 C 17.867188 20.222656 16.832031 20.71875 15.648438 20.898438 C 15.585938 20.902344 15.519531 20.921875 15.417969 20.933594 Z M 15.417969 20.933594 " fill-opacity="1" fill-rule="nonzero"/></g></svg>