<svg xmlns="http://www.w3.org/2000/svg" xmlns:xlink="http://www.w3.org/1999/xlink" width="40" zoomAndPan="magnify" viewBox="0 0 30 36.000001" height="40" preserveAspectRatio="xMidYMid meet" version="1.0"><defs><clipPath id="4aa65ff31c"><path d="M 7.488281 6.25 L 22.8125 6.25 L 22.8125 23 L 7.488281 23 Z M 7.488281 6.25 " clip-rule="nonzero"/></clipPath></defs><path fill="#111827" d="M 9.4375 12.085938 L 10.546875 12.085938 C 10.703125 12.085938 10.832031 12.140625 10.941406 12.25 C 11.050781 12.355469 11.105469 12.488281 11.105469 12.640625 L 11.105469 13.753906 C 11.105469 13.90625 11.050781 14.039062 10.941406 14.148438 C 10.832031 14.257812 10.703125 14.308594 10.546875 14.308594 L 9.4375 14.308594 C 9.28125 14.308594 9.152344 14.257812 9.042969 14.148438 C 8.933594 14.039062 8.878906 13.90625 8.878906 13.753906 L 8.878906 12.640625 C 8.878906 12.488281 8.933594 12.355469 9.042969 12.25 C 9.152344 12.140625 9.28125 12.085938 9.4375 12.085938 Z M 9.4375 12.085938 " fill-opacity="1" fill-rule="nonzero"/><path fill="#111827" d="M 12.773438 12.085938 L 13.886719 12.085938 C 14.039062 12.085938 14.171875 12.140625 14.277344 12.25 C 14.386719 12.355469 14.441406 12.488281 14.441406 12.640625 L 14.441406 13.753906 C 14.441406 13.90625 14.386719 14.039062 14.277344 14.148438 C 14.171875 14.257812 14.039062 14.308594 13.886719 14.308594 L 12.773438 14.308594 C 12.621094 14.308594 12.488281 14.257812 12.378906 14.148438 C 12.269531 14.039062 12.21875 13.90625 12.21875 13.753906 L 12.21875 12.640625 C 12.21875 12.488281 12.269531 12.355469 12.378906 12.25 C 12.488281 12.140625 12.621094 12.085938 12.773438 12.085938 Z M 12.773438 12.085938 " fill-opacity="1" fill-rule="nonzero"/><path fill="#111827" d="M 16.109375 12.085938 L 17.222656 12.085938 C 17.375 12.085938 17.507812 12.140625 17.617188 12.25 C 17.722656 12.355469 17.777344 12.488281 17.777344 12.640625 L 17.777344 13.753906 C 17.777344 13.90625 17.722656 14.039062 17.617188 14.148438 C 17.507812 14.257812 17.375 14.308594 17.222656 14.308594 L 16.109375 14.308594 C 15.957031 14.308594 15.824219 14.257812 15.714844 14.148438 C 15.609375 14.039062 15.554688 13.90625 15.554688 13.753906 L 15.554688 12.640625 C 15.554688 12.488281 15.609375 12.355469 15.714844 12.25 C 15.824219 12.140625 15.957031 12.085938 16.109375 12.085938 Z M 16.109375 12.085938 " fill-opacity="1" fill-rule="nonzero"/><path fill="#111827" d="M 19.445312 12.085938 L 20.558594 12.085938 C 20.710938 12.085938 20.84375 12.140625 20.953125 12.25 C 21.0625 12.355469 21.117188 12.488281 21.117188 12.640625 L 21.117188 13.753906 C 21.117188 13.90625 21.0625 14.039062 20.953125 14.148438 C 20.84375 14.257812 20.710938 14.308594 20.558594 14.308594 L 19.445312 14.308594 C 19.292969 14.308594 19.164062 14.257812 19.054688 14.148438 C 18.945312 14.039062 18.890625 13.90625 18.890625 13.753906 L 18.890625 12.640625 C 18.890625 12.488281 18.945312 12.355469 19.054688 12.25 C 19.164062 12.140625 19.292969 12.085938 19.445312 12.085938 Z M 19.445312 12.085938 " fill-opacity="1" fill-rule="nonzero"/><path fill="#111827" d="M 9.4375 15.144531 L 10.546875 15.144531 C 10.703125 15.144531 10.832031 15.199219 10.941406 15.308594 C 11.050781 15.414062 11.105469 15.546875 11.105469 15.699219 L 11.105469 16.8125 C 11.105469 16.964844 11.050781 17.097656 10.941406 17.207031 C 10.832031 17.316406 10.703125 17.367188 10.546875 17.367188 L 9.4375 17.367188 C 9.28125 17.367188 9.152344 17.316406 9.042969 17.207031 C 8.933594 17.097656 8.878906 16.964844 8.878906 16.8125 L 8.878906 15.699219 C 8.878906 15.546875 8.933594 15.414062 9.042969 15.308594 C 9.152344 15.199219 9.28125 15.144531 9.4375 15.144531 Z M 9.4375 15.144531 " fill-opacity="1" fill-rule="nonzero"/><path fill="#111827" d="M 12.773438 15.003906 L 13.886719 15.003906 C 14.039062 15.003906 14.171875 15.058594 14.277344 15.167969 C 14.386719 15.277344 14.441406 15.40625 14.441406 15.5625 L 14.441406 16.675781 C 14.441406 16.828125 14.386719 16.957031 14.277344 17.066406 C 14.171875 17.175781 14.039062 17.230469 13.886719 17.230469 L 12.773438 17.230469 C 12.621094 17.230469 12.488281 17.175781 12.378906 17.066406 C 12.269531 16.957031 12.21875 16.828125 12.21875 16.675781 L 12.21875 15.5625 C 12.21875 15.40625 12.269531 15.277344 12.378906 15.167969 C 12.488281 15.058594 12.621094 15.003906 12.773438 15.003906 Z M 12.773438 15.003906 " fill-opacity="1" fill-rule="nonzero"/><path fill="#111827" d="M 16.109375 15.003906 L 17.222656 15.003906 C 17.375 15.003906 17.507812 15.058594 17.617188 15.167969 C 17.722656 15.277344 17.777344 15.40625 17.777344 15.5625 L 17.777344 16.675781 C 17.777344 16.828125 17.722656 16.957031 17.617188 17.066406 C 17.507812 17.175781 17.375 17.230469 17.222656 17.230469 L 16.109375 17.230469 C 15.957031 17.230469 15.824219 17.175781 15.714844 17.066406 C 15.609375 16.957031 15.554688 16.828125 15.554688 16.675781 L 15.554688 15.5625 C 15.554688 15.40625 15.609375 15.277344 15.714844 15.167969 C 15.824219 15.058594 15.957031 15.003906 16.109375 15.003906 Z M 16.109375 15.003906 " fill-opacity="1" fill-rule="nonzero"/><path fill="#111827" d="M 19.445312 15.003906 L 20.558594 15.003906 C 20.710938 15.003906 20.84375 15.058594 20.953125 15.167969 C 21.0625 15.277344 21.117188 15.40625 21.117188 15.5625 L 21.117188 16.675781 C 21.117188 16.828125 21.0625 16.957031 20.953125 17.066406 C 20.84375 17.175781 20.710938 17.230469 20.558594 17.230469 L 19.445312 17.230469 C 19.292969 17.230469 19.164062 17.175781 19.054688 17.066406 C 18.945312 16.957031 18.890625 16.828125 18.890625 16.675781 L 18.890625 15.5625 C 18.890625 15.40625 18.945312 15.277344 19.054688 15.167969 C 19.164062 15.058594 19.292969 15.003906 19.445312 15.003906 Z M 19.445312 15.003906 " fill-opacity="1" fill-rule="nonzero"/><path fill="#111827" d="M 9.4375 17.925781 L 10.546875 17.925781 C 10.703125 17.925781 10.832031 17.980469 10.941406 18.089844 C 11.050781 18.195312 11.105469 18.328125 11.105469 18.480469 L 11.105469 19.59375 C 11.105469 19.746094 11.050781 19.878906 10.941406 19.988281 C 10.832031 20.09375 10.703125 20.148438 10.546875 20.148438 L 9.4375 20.148438 C 9.28125 20.148438 9.152344 20.09375 9.042969 19.988281 C 8.933594 19.878906 8.878906 19.746094 8.878906 19.59375 L 8.878906 18.480469 C 8.878906 18.328125 8.933594 18.195312 9.042969 18.089844 C 9.152344 17.980469 9.28125 17.925781 9.4375 17.925781 Z M 9.4375 17.925781 " fill-opacity="1" fill-rule="nonzero"/><path fill="#111827" d="M 12.773438 17.925781 L 13.886719 17.925781 C 14.039062 17.925781 14.171875 17.980469 14.277344 18.089844 C 14.386719 18.195312 14.441406 18.328125 14.441406 18.480469 L 14.441406 19.59375 C 14.441406 19.746094 14.386719 19.878906 14.277344 19.988281 C 14.171875 20.09375 14.039062 20.148438 13.886719 20.148438 L 12.773438 20.148438 C 12.621094 20.148438 12.488281 20.09375 12.378906 19.988281 C 12.269531 19.878906 12.21875 19.746094 12.21875 19.59375 L 12.21875 18.480469 C 12.21875 18.328125 12.269531 18.195312 12.378906 18.089844 C 12.488281 17.980469 12.621094 17.925781 12.773438 17.925781 Z M 12.773438 17.925781 " fill-opacity="1" fill-rule="nonzero"/><path fill="#111827" d="M 16.109375 17.925781 L 17.222656 17.925781 C 17.375 17.925781 17.507812 17.980469 17.617188 18.089844 C 17.722656 18.195312 17.777344 18.328125 17.777344 18.480469 L 17.777344 19.59375 C 17.777344 19.746094 17.722656 19.878906 17.617188 19.988281 C 17.507812 20.09375 17.375 20.148438 17.222656 20.148438 L 16.109375 20.148438 C 15.957031 20.148438 15.824219 20.09375 15.714844 19.988281 C 15.609375 19.878906 15.554688 19.746094 15.554688 19.59375 L 15.554688 18.480469 C 15.554688 18.328125 15.609375 18.195312 15.714844 18.089844 C 15.824219 17.980469 15.957031 17.925781 16.109375 17.925781 Z M 16.109375 17.925781 " fill-opacity="1" fill-rule="nonzero"/><g clip-path="url(#4aa65ff31c)"><path fill="#111827" d="M 21.117188 7.359375 L 20.28125 7.359375 L 20.28125 7.21875 C 20.28125 7.089844 20.257812 6.964844 20.207031 6.847656 C 20.15625 6.726562 20.085938 6.621094 19.996094 6.53125 C 19.90625 6.441406 19.800781 6.371094 19.679688 6.320312 C 19.5625 6.269531 19.4375 6.246094 19.308594 6.246094 C 19.179688 6.246094 19.054688 6.269531 18.933594 6.320312 C 18.816406 6.371094 18.710938 6.441406 18.621094 6.53125 C 18.527344 6.621094 18.457031 6.726562 18.410156 6.847656 C 18.359375 6.964844 18.335938 7.089844 18.335938 7.21875 L 18.335938 7.359375 L 15.972656 7.359375 L 15.972656 7.21875 C 15.972656 7.089844 15.945312 6.964844 15.898438 6.847656 C 15.847656 6.726562 15.777344 6.621094 15.6875 6.53125 C 15.59375 6.441406 15.488281 6.371094 15.371094 6.320312 C 15.25 6.269531 15.125 6.246094 14.996094 6.246094 C 14.867188 6.246094 14.746094 6.269531 14.625 6.320312 C 14.507812 6.371094 14.402344 6.441406 14.308594 6.53125 C 14.21875 6.621094 14.148438 6.726562 14.097656 6.847656 C 14.050781 6.964844 14.023438 7.089844 14.023438 7.21875 L 14.023438 7.359375 L 11.660156 7.359375 L 11.660156 7.21875 C 11.660156 7.089844 11.636719 6.964844 11.585938 6.847656 C 11.539062 6.726562 11.46875 6.621094 11.375 6.53125 C 11.285156 6.441406 11.179688 6.371094 11.058594 6.320312 C 10.941406 6.269531 10.816406 6.246094 10.6875 6.246094 C 10.558594 6.246094 10.433594 6.269531 10.316406 6.320312 C 10.195312 6.371094 10.089844 6.441406 10 6.53125 C 9.90625 6.621094 9.835938 6.726562 9.789062 6.847656 C 9.738281 6.964844 9.714844 7.089844 9.714844 7.21875 L 9.714844 7.359375 L 8.878906 7.359375 C 8.695312 7.359375 8.519531 7.394531 8.347656 7.464844 C 8.175781 7.535156 8.027344 7.636719 7.898438 7.765625 C 7.765625 7.894531 7.664062 8.046875 7.59375 8.214844 C 7.523438 8.386719 7.488281 8.5625 7.488281 8.75 L 7.488281 21.539062 C 7.488281 21.726562 7.523438 21.902344 7.59375 22.074219 C 7.664062 22.242188 7.765625 22.394531 7.898438 22.523438 C 8.027344 22.652344 8.175781 22.753906 8.347656 22.824219 C 8.519531 22.894531 8.695312 22.929688 8.878906 22.929688 L 21.117188 22.929688 C 21.300781 22.929688 21.476562 22.894531 21.648438 22.824219 C 21.816406 22.753906 21.96875 22.652344 22.097656 22.523438 C 22.230469 22.394531 22.328125 22.242188 22.398438 22.074219 C 22.46875 21.902344 22.503906 21.726562 22.503906 21.539062 L 22.503906 8.75 C 22.503906 8.5625 22.46875 8.386719 22.398438 8.214844 C 22.328125 8.046875 22.230469 7.894531 22.097656 7.765625 C 21.96875 7.636719 21.816406 7.535156 21.648438 7.464844 C 21.476562 7.394531 21.300781 7.359375 21.117188 7.359375 Z M 18.890625 7.21875 C 18.890625 7.105469 18.929688 7.003906 19.011719 6.925781 C 19.09375 6.84375 19.191406 6.800781 19.308594 6.800781 C 19.421875 6.800781 19.519531 6.84375 19.601562 6.925781 C 19.683594 7.003906 19.726562 7.105469 19.726562 7.21875 L 19.726562 8.332031 C 19.726562 8.445312 19.683594 8.546875 19.601562 8.625 C 19.519531 8.707031 19.421875 8.75 19.308594 8.75 C 19.191406 8.75 19.09375 8.707031 19.011719 8.625 C 18.929688 8.546875 18.890625 8.445312 18.890625 8.332031 Z M 14.582031 7.21875 C 14.582031 7.105469 14.621094 7.003906 14.703125 6.925781 C 14.785156 6.84375 14.882812 6.800781 14.996094 6.800781 C 15.113281 6.800781 15.210938 6.84375 15.292969 6.925781 C 15.375 7.003906 15.414062 7.105469 15.414062 7.21875 L 15.414062 8.332031 C 15.414062 8.445312 15.375 8.546875 15.292969 8.625 C 15.210938 8.707031 15.113281 8.75 14.996094 8.75 C 14.882812 8.75 14.785156 8.707031 14.703125 8.625 C 14.621094 8.546875 14.582031 8.445312 14.582031 8.332031 Z M 10.269531 7.21875 C 10.269531 7.105469 10.3125 7.003906 10.390625 6.925781 C 10.472656 6.84375 10.570312 6.800781 10.6875 6.800781 C 10.800781 6.800781 10.902344 6.84375 10.980469 6.925781 C 11.0625 7.003906 11.105469 7.105469 11.105469 7.21875 L 11.105469 8.332031 C 11.105469 8.445312 11.0625 8.546875 10.980469 8.625 C 10.902344 8.707031 10.800781 8.75 10.6875 8.75 C 10.570312 8.75 10.472656 8.707031 10.390625 8.625 C 10.3125 8.546875 10.269531 8.445312 10.269531 8.332031 Z M 19.445312 20.871094 L 19.445312 19.59375 C 19.449219 19.363281 19.527344 19.167969 19.691406 19.003906 C 19.855469 18.84375 20.050781 18.761719 20.28125 18.757812 L 21.558594 18.757812 Z M 21.949219 17.925781 C 21.949219 18.003906 21.921875 18.066406 21.867188 18.121094 C 21.8125 18.175781 21.75 18.203125 21.671875 18.203125 L 20.28125 18.203125 C 20.097656 18.203125 19.917969 18.238281 19.75 18.308594 C 19.578125 18.378906 19.429688 18.480469 19.296875 18.609375 C 19.167969 18.742188 19.066406 18.890625 18.996094 19.0625 C 18.925781 19.230469 18.890625 19.410156 18.890625 19.59375 L 18.890625 20.984375 C 18.890625 21.0625 18.863281 21.125 18.808594 21.179688 C 18.753906 21.234375 18.6875 21.261719 18.613281 21.261719 L 8.878906 21.246094 C 8.648438 21.246094 8.453125 21.164062 8.289062 21 C 8.128906 20.839844 8.046875 20.640625 8.046875 20.410156 L 8.046875 11.25 L 21.949219 11.25 Z M 21.949219 17.925781 " fill-opacity="1" fill-rule="nonzero"/></g></svg>