<svg xmlns="http://www.w3.org/2000/svg" width="32" height="32" viewBox="0 0 32 32" fill="none">
  <path d="M7.5 24.5 6 29l4.6-1.5A11 11 0 1 0 7.5 24.5Z" stroke="#111827" stroke-width="2" stroke-linecap="round" stroke-linejoin="round"/>
  <path d="M19.8 19.8c-.6 1.1-2.7.5-4.3-.7s-2.8-3-2.3-4.1c.2-.5.8-.7 1.3-.4l1.3.8c.4.2.6.7.4 1.1-.2.4 0 .9.4 1.1l1.6.9c.5.3 1 .1 1.2-.3l.6-1.1c.2-.4.7-.6 1.1-.4l1.2.6c.5.2.7.8.5 1.3-.4.9-.9 1.8-1.3 2.2Z" stroke="#111827" stroke-width="2" stroke-linecap="round" stroke-linejoin="round"/>
</svg>
