<svg xmlns="http://www.w3.org/2000/svg" xmlns:xlink="http://www.w3.org/1999/xlink" width="220" zoomAndPan="magnify" viewBox="0 0 165 195.000001" height="260" preserveAspectRatio="xMidYMid meet" version="1.0"><defs><g/><clipPath id="79a113b1ae"><path d="M 0.0742188 19 L 33 19 L 33 55 L 0.0742188 55 Z M 0.0742188 19 " clip-rule="nonzero"/></clipPath><clipPath id="72d41e6e40"><rect x="0" width="137" y="0" height="74"/></clipPath><clipPath id="64fad88695"><path d="M 0.464844 5 L 7 5 L 7 12 L 0.464844 12 Z M 0.464844 5 " clip-rule="nonzero"/></clipPath><clipPath id="d12da936f7"><rect x="0" width="35" y="0" height="16"/></clipPath></defs><g transform="matrix(1, 0, 0, 1, 13, 57)"><g clip-path="url(#72d41e6e40)"><g clip-path="url(#79a113b1ae)"><g fill="#ffffff" fill-opacity="1"><g transform="translate(0.206041, 54.780851)"><g><path d="M 31.9375 -35.734375 L 19.859375 -12.4375 L 19.859375 0 L 12.6875 0 L 12.6875 -12.4375 L 0.5625 -35.734375 L 8.65625 -35.734375 L 16.328125 -19.40625 L 23.953125 -35.734375 Z M 31.9375 -35.734375 "/></g></g></g></g><g fill="#ffffff" fill-opacity="1"><g transform="translate(31.228568, 54.780851)"><g><path d="M 1.6875 -14.28125 C 1.6875 -17.144531 2.257812 -19.6875 3.40625 -21.90625 C 4.550781 -24.125 6.101562 -25.828125 8.0625 -27.015625 C 10.019531 -28.210938 12.210938 -28.8125 14.640625 -28.8125 C 16.753906 -28.8125 18.601562 -28.382812 20.1875 -27.53125 C 21.78125 -26.6875 23.050781 -25.613281 24 -24.3125 L 24 -28.359375 L 31.21875 -28.359375 L 31.21875 0 L 24 0 L 24 -4.140625 C 23.082031 -2.816406 21.8125 -1.71875 20.1875 -0.84375 C 18.570312 0.0195312 16.707031 0.453125 14.59375 0.453125 C 12.195312 0.453125 10.019531 -0.15625 8.0625 -1.375 C 6.101562 -2.601562 4.550781 -4.335938 3.40625 -6.578125 C 2.257812 -8.816406 1.6875 -11.382812 1.6875 -14.28125 Z M 24 -14.171875 C 24 -15.921875 23.65625 -17.414062 22.96875 -18.65625 C 22.289062 -19.90625 21.375 -20.859375 20.21875 -21.515625 C 19.0625 -22.179688 17.816406 -22.515625 16.484375 -22.515625 C 15.148438 -22.515625 13.921875 -22.191406 12.796875 -21.546875 C 11.671875 -20.898438 10.757812 -19.953125 10.0625 -18.703125 C 9.363281 -17.460938 9.015625 -15.988281 9.015625 -14.28125 C 9.015625 -12.570312 9.363281 -11.078125 10.0625 -9.796875 C 10.757812 -8.523438 11.675781 -7.546875 12.8125 -6.859375 C 13.957031 -6.171875 15.179688 -5.828125 16.484375 -5.828125 C 17.816406 -5.828125 19.0625 -6.160156 20.21875 -6.828125 C 21.375 -7.492188 22.289062 -8.445312 22.96875 -9.6875 C 23.65625 -10.9375 24 -12.429688 24 -14.171875 Z M 24 -14.171875 "/></g></g></g><g fill="#ffffff" fill-opacity="1"><g transform="translate(64.401191, 54.780851)"><g><path d="M 11.875 -22.46875 L 11.875 -8.75 C 11.875 -7.789062 12.101562 -7.097656 12.5625 -6.671875 C 13.019531 -6.253906 13.796875 -6.046875 14.890625 -6.046875 L 18.21875 -6.046875 L 18.21875 0 L 13.71875 0 C 7.675781 0 4.65625 -2.929688 4.65625 -8.796875 L 4.65625 -22.46875 L 1.28125 -22.46875 L 1.28125 -28.359375 L 4.65625 -28.359375 L 4.65625 -35.375 L 11.875 -35.375 L 11.875 -28.359375 L 18.21875 -28.359375 L 18.21875 -22.46875 Z M 11.875 -22.46875 "/></g></g></g><g fill="#ffffff" fill-opacity="1"><g transform="translate(82.727864, 54.780851)"><g><path d="M 11.875 -22.46875 L 11.875 -8.75 C 11.875 -7.789062 12.101562 -7.097656 12.5625 -6.671875 C 13.019531 -6.253906 13.796875 -6.046875 14.890625 -6.046875 L 18.21875 -6.046875 L 18.21875 0 L 13.71875 0 C 7.675781 0 4.65625 -2.929688 4.65625 -8.796875 L 4.65625 -22.46875 L 1.28125 -22.46875 L 1.28125 -28.359375 L 4.65625 -28.359375 L 4.65625 -35.375 L 11.875 -35.375 L 11.875 -28.359375 L 18.21875 -28.359375 L 18.21875 -22.46875 Z M 11.875 -22.46875 "/></g></g></g><g fill="#ffffff" fill-opacity="1"><g transform="translate(101.054538, 54.780851)"><g><path d="M 1.6875 -14.28125 C 1.6875 -17.144531 2.257812 -19.6875 3.40625 -21.90625 C 4.550781 -24.125 6.101562 -25.828125 8.0625 -27.015625 C 10.019531 -28.210938 12.210938 -28.8125 14.640625 -28.8125 C 16.753906 -28.8125 18.601562 -28.382812 20.1875 -27.53125 C 21.78125 -26.6875 23.050781 -25.613281 24 -24.3125 L 24 -28.359375 L 31.21875 -28.359375 L 31.21875 0 L 24 0 L 24 -4.140625 C 23.082031 -2.816406 21.8125 -1.71875 20.1875 -0.84375 C 18.570312 0.0195312 16.707031 0.453125 14.59375 0.453125 C 12.195312 0.453125 10.019531 -0.15625 8.0625 -1.375 C 6.101562 -2.601562 4.550781 -4.335938 3.40625 -6.578125 C 2.257812 -8.816406 1.6875 -11.382812 1.6875 -14.28125 Z M 24 -14.171875 C 24 -15.921875 23.65625 -17.414062 22.96875 -18.65625 C 22.289062 -19.90625 21.375 -20.859375 20.21875 -21.515625 C 19.0625 -22.179688 17.816406 -22.515625 16.484375 -22.515625 C 15.148438 -22.515625 13.921875 -22.191406 12.796875 -21.546875 C 11.671875 -20.898438 10.757812 -19.953125 10.0625 -18.703125 C 9.363281 -17.460938 9.015625 -15.988281 9.015625 -14.28125 C 9.015625 -12.570312 9.363281 -11.078125 10.0625 -9.796875 C 10.757812 -8.523438 11.675781 -7.546875 12.8125 -6.859375 C 13.957031 -6.171875 15.179688 -5.828125 16.484375 -5.828125 C 17.816406 -5.828125 19.0625 -6.160156 20.21875 -6.828125 C 21.375 -7.492188 22.289062 -8.445312 22.96875 -9.6875 C 23.65625 -10.9375 24 -12.429688 24 -14.171875 Z M 24 -14.171875 "/></g></g></g></g></g><g transform="matrix(1, 0, 0, 1, 116, 117)"><g clip-path="url(#d12da936f7)"><g clip-path="url(#64fad88695)"><g fill="#ffffff" fill-opacity="1"><g transform="translate(0.48639, 11.087548)"><g><path d="M 0.34375 -2.90625 C 0.34375 -3.507812 0.460938 -4.035156 0.703125 -4.484375 C 0.953125 -4.929688 1.289062 -5.28125 1.71875 -5.53125 C 2.15625 -5.78125 2.65625 -5.90625 3.21875 -5.90625 C 3.9375 -5.90625 4.53125 -5.722656 5 -5.359375 C 5.476562 -5.003906 5.796875 -4.5 5.953125 -3.84375 L 4.375 -3.84375 C 4.289062 -4.09375 4.148438 -4.289062 3.953125 -4.4375 C 3.753906 -4.582031 3.503906 -4.65625 3.203125 -4.65625 C 2.785156 -4.65625 2.453125 -4.503906 2.203125 -4.203125 C 1.960938 -3.898438 1.84375 -3.46875 1.84375 -2.90625 C 1.84375 -2.351562 1.960938 -1.921875 2.203125 -1.609375 C 2.453125 -1.304688 2.785156 -1.15625 3.203125 -1.15625 C 3.796875 -1.15625 4.1875 -1.421875 4.375 -1.953125 L 5.953125 -1.953125 C 5.796875 -1.328125 5.476562 -0.828125 5 -0.453125 C 4.519531 -0.0859375 3.925781 0.09375 3.21875 0.09375 C 2.65625 0.09375 2.15625 -0.03125 1.71875 -0.28125 C 1.289062 -0.53125 0.953125 -0.878906 0.703125 -1.328125 C 0.460938 -1.773438 0.34375 -2.300781 0.34375 -2.90625 Z M 0.34375 -2.90625 "/></g></g></g></g><g fill="#ffffff" fill-opacity="1"><g transform="translate(6.474122, 11.087548)"><g><path d="M 3.296875 0.09375 C 2.742188 0.09375 2.242188 -0.03125 1.796875 -0.28125 C 1.347656 -0.53125 0.992188 -0.878906 0.734375 -1.328125 C 0.484375 -1.785156 0.359375 -2.3125 0.359375 -2.90625 C 0.359375 -3.5 0.488281 -4.019531 0.75 -4.46875 C 1.007812 -4.925781 1.363281 -5.28125 1.8125 -5.53125 C 2.269531 -5.78125 2.78125 -5.90625 3.34375 -5.90625 C 3.90625 -5.90625 4.410156 -5.78125 4.859375 -5.53125 C 5.316406 -5.28125 5.675781 -4.925781 5.9375 -4.46875 C 6.195312 -4.019531 6.328125 -3.5 6.328125 -2.90625 C 6.328125 -2.3125 6.191406 -1.785156 5.921875 -1.328125 C 5.660156 -0.878906 5.300781 -0.53125 4.84375 -0.28125 C 4.382812 -0.03125 3.867188 0.09375 3.296875 0.09375 Z M 3.296875 -1.1875 C 3.566406 -1.1875 3.816406 -1.25 4.046875 -1.375 C 4.285156 -1.507812 4.472656 -1.703125 4.609375 -1.953125 C 4.753906 -2.210938 4.828125 -2.53125 4.828125 -2.90625 C 4.828125 -3.457031 4.679688 -3.878906 4.390625 -4.171875 C 4.097656 -4.472656 3.742188 -4.625 3.328125 -4.625 C 2.898438 -4.625 2.546875 -4.472656 2.265625 -4.171875 C 1.984375 -3.878906 1.84375 -3.457031 1.84375 -2.90625 C 1.84375 -2.351562 1.976562 -1.925781 2.25 -1.625 C 2.53125 -1.332031 2.878906 -1.1875 3.296875 -1.1875 Z M 3.296875 -1.1875 "/></g></g></g><g fill="#ffffff" fill-opacity="1"><g transform="translate(12.838734, 11.087548)"><g><path d="M 7.9375 -5.890625 C 8.644531 -5.890625 9.21875 -5.671875 9.65625 -5.234375 C 10.09375 -4.796875 10.3125 -4.1875 10.3125 -3.40625 L 10.3125 0 L 8.84375 0 L 8.84375 -3.203125 C 8.84375 -3.660156 8.726562 -4.007812 8.5 -4.25 C 8.269531 -4.488281 7.957031 -4.609375 7.5625 -4.609375 C 7.164062 -4.609375 6.847656 -4.488281 6.609375 -4.25 C 6.378906 -4.007812 6.265625 -3.660156 6.265625 -3.203125 L 6.265625 0 L 4.796875 0 L 4.796875 -3.203125 C 4.796875 -3.660156 4.675781 -4.007812 4.4375 -4.25 C 4.207031 -4.488281 3.894531 -4.609375 3.5 -4.609375 C 3.09375 -4.609375 2.769531 -4.488281 2.53125 -4.25 C 2.300781 -4.007812 2.1875 -3.660156 2.1875 -3.203125 L 2.1875 0 L 0.71875 0 L 0.71875 -5.8125 L 2.1875 -5.8125 L 2.1875 -5.109375 C 2.375 -5.347656 2.613281 -5.535156 2.90625 -5.671875 C 3.207031 -5.816406 3.539062 -5.890625 3.90625 -5.890625 C 4.351562 -5.890625 4.753906 -5.789062 5.109375 -5.59375 C 5.472656 -5.40625 5.75 -5.132812 5.9375 -4.78125 C 6.132812 -5.113281 6.410156 -5.378906 6.765625 -5.578125 C 7.128906 -5.785156 7.519531 -5.890625 7.9375 -5.890625 Z M 7.9375 -5.890625 "/></g></g></g><g fill="#ffffff" fill-opacity="1"><g transform="translate(23.49558, 11.087548)"><g><path d="M 1.375 0.078125 C 1.101562 0.078125 0.882812 -0.00390625 0.71875 -0.171875 C 0.550781 -0.335938 0.46875 -0.539062 0.46875 -0.78125 C 0.46875 -1.03125 0.550781 -1.234375 0.71875 -1.390625 C 0.882812 -1.554688 1.101562 -1.640625 1.375 -1.640625 C 1.632812 -1.640625 1.847656 -1.554688 2.015625 -1.390625 C 2.179688 -1.234375 2.265625 -1.03125 2.265625 -0.78125 C 2.265625 -0.539062 2.179688 -0.335938 2.015625 -0.171875 C 1.847656 -0.00390625 1.632812 0.078125 1.375 0.078125 Z M 1.375 0.078125 "/></g></g></g><g fill="#ffffff" fill-opacity="1"><g transform="translate(25.902956, 11.087548)"><g><path d="M 2.4375 -4.609375 L 2.4375 -1.796875 C 2.4375 -1.597656 2.484375 -1.453125 2.578125 -1.359375 C 2.671875 -1.273438 2.828125 -1.234375 3.046875 -1.234375 L 3.734375 -1.234375 L 3.734375 0 L 2.8125 0 C 1.570312 0 0.953125 -0.597656 0.953125 -1.796875 L 0.953125 -4.609375 L 0.265625 -4.609375 L 0.265625 -5.8125 L 0.953125 -5.8125 L 0.953125 -7.25 L 2.4375 -7.25 L 2.4375 -5.8125 L 3.734375 -5.8125 L 3.734375 -4.609375 Z M 2.4375 -4.609375 "/></g></g></g><g fill="#ffffff" fill-opacity="1"><g transform="translate(29.650348, 11.087548)"><g><path d="M 2.1875 -4.90625 C 2.375 -5.21875 2.617188 -5.457031 2.921875 -5.625 C 3.234375 -5.800781 3.582031 -5.890625 3.96875 -5.890625 L 3.96875 -4.34375 L 3.578125 -4.34375 C 3.117188 -4.34375 2.769531 -4.234375 2.53125 -4.015625 C 2.300781 -3.804688 2.1875 -3.429688 2.1875 -2.890625 L 2.1875 0 L 0.71875 0 L 0.71875 -5.8125 L 2.1875 -5.8125 Z M 2.1875 -4.90625 "/></g></g></g></g></g></svg>