<svg xmlns="http://www.w3.org/2000/svg" xmlns:xlink="http://www.w3.org/1999/xlink" width="256" zoomAndPan="magnify" viewBox="0 0 192 48" height="64" preserveAspectRatio="xMidYMid meet" version="1.0"><defs><g/><clipPath id="c394d5a7ff"><path d="M 2 0 L 105 0 L 105 47.019531 L 2 47.019531 Z M 2 0 " clip-rule="nonzero"/></clipPath><clipPath id="743ed09822"><path d="M 0.195312 9 L 26 9 L 26 38 L 0.195312 38 Z M 0.195312 9 " clip-rule="nonzero"/></clipPath><clipPath id="e2dcc7f0af"><rect x="0" width="103" y="0" height="48"/></clipPath></defs><g clip-path="url(#c394d5a7ff)"><g transform="matrix(1, 0, 0, 1, 2, 0.000000000000005041)"><g clip-path="url(#e2dcc7f0af)"><g clip-path="url(#743ed09822)"><g fill="#2d4ed8" fill-opacity="1"><g transform="translate(0.370242, 37.766167)"><g><path d="M 9.65625 0 L 9.65625 -11.5 L 0 -28.25 L 6.234375 -28.25 L 12.359375 -17.609375 L 18.484375 -28.25 L 24.71875 -28.25 L 15.0625 -11.5 L 15.0625 0 Z M 9.65625 0 "/></g></g></g></g><g fill="#2d4ed8" fill-opacity="1"><g transform="translate(21.869563, 37.766167)"><g><path d="M 8.625 0.59375 C 7.113281 0.59375 5.832031 0.300781 4.78125 -0.28125 C 3.726562 -0.863281 2.925781 -1.640625 2.375 -2.609375 C 1.832031 -3.585938 1.5625 -4.664062 1.5625 -5.84375 C 1.5625 -6.820312 1.710938 -7.71875 2.015625 -8.53125 C 2.316406 -9.34375 2.804688 -10.054688 3.484375 -10.671875 C 4.160156 -11.296875 5.066406 -11.816406 6.203125 -12.234375 C 6.984375 -12.523438 7.914062 -12.78125 9 -13 C 10.082031 -13.226562 11.3125 -13.441406 12.6875 -13.640625 C 14.0625 -13.847656 15.570312 -14.078125 17.21875 -14.328125 L 15.296875 -13.265625 C 15.296875 -14.515625 14.992188 -15.429688 14.390625 -16.015625 C 13.796875 -16.609375 12.789062 -16.90625 11.375 -16.90625 C 10.59375 -16.90625 9.773438 -16.710938 8.921875 -16.328125 C 8.078125 -15.953125 7.484375 -15.285156 7.140625 -14.328125 L 2.3125 -15.84375 C 2.851562 -17.601562 3.859375 -19.03125 5.328125 -20.125 C 6.804688 -21.226562 8.820312 -21.78125 11.375 -21.78125 C 13.25 -21.78125 14.910156 -21.488281 16.359375 -20.90625 C 17.804688 -20.332031 18.90625 -19.34375 19.65625 -17.9375 C 20.070312 -17.144531 20.316406 -16.359375 20.390625 -15.578125 C 20.472656 -14.796875 20.515625 -13.921875 20.515625 -12.953125 L 20.515625 0 L 15.84375 0 L 15.84375 -4.359375 L 16.515625 -3.453125 C 15.484375 -2.023438 14.367188 -0.992188 13.171875 -0.359375 C 11.972656 0.273438 10.457031 0.59375 8.625 0.59375 Z M 9.765625 -3.609375 C 10.742188 -3.609375 11.570312 -3.78125 12.25 -4.125 C 12.925781 -4.476562 13.460938 -4.875 13.859375 -5.3125 C 14.253906 -5.757812 14.523438 -6.132812 14.671875 -6.4375 C 14.941406 -7.007812 15.097656 -7.675781 15.140625 -8.4375 C 15.191406 -9.207031 15.21875 -9.847656 15.21875 -10.359375 L 16.796875 -9.96875 C 15.210938 -9.707031 13.925781 -9.488281 12.9375 -9.3125 C 11.957031 -9.132812 11.164062 -8.972656 10.5625 -8.828125 C 9.96875 -8.679688 9.441406 -8.523438 8.984375 -8.359375 C 8.460938 -8.148438 8.039062 -7.921875 7.71875 -7.671875 C 7.394531 -7.429688 7.15625 -7.164062 7 -6.875 C 6.851562 -6.59375 6.78125 -6.273438 6.78125 -5.921875 C 6.78125 -5.441406 6.898438 -5.023438 7.140625 -4.671875 C 7.390625 -4.328125 7.734375 -4.0625 8.171875 -3.875 C 8.617188 -3.695312 9.148438 -3.609375 9.765625 -3.609375 Z M 9.765625 -3.609375 "/></g></g></g><g fill="#2d4ed8" fill-opacity="1"><g transform="translate(44.663941, 37.766167)"><g><path d="M 15.453125 0 C 13.992188 0.269531 12.5625 0.390625 11.15625 0.359375 C 9.75 0.328125 8.492188 0.0820312 7.390625 -0.375 C 6.285156 -0.84375 5.441406 -1.59375 4.859375 -2.625 C 4.335938 -3.59375 4.0625 -4.578125 4.03125 -5.578125 C 4.007812 -6.578125 4 -7.710938 4 -8.984375 L 4 -27.078125 L 9.34375 -27.078125 L 9.34375 -9.296875 C 9.34375 -8.472656 9.347656 -7.726562 9.359375 -7.0625 C 9.378906 -6.40625 9.515625 -5.882812 9.765625 -5.5 C 10.234375 -4.75 10.984375 -4.335938 12.015625 -4.265625 C 13.054688 -4.203125 14.203125 -4.257812 15.453125 -4.4375 Z M 0.390625 -17.0625 L 0.390625 -21.1875 L 15.453125 -21.1875 L 15.453125 -17.0625 Z M 0.390625 -17.0625 "/></g></g></g><g fill="#2d4ed8" fill-opacity="1"><g transform="translate(62.004936, 37.766167)"><g><path d="M 15.453125 0 C 13.992188 0.269531 12.5625 0.390625 11.15625 0.359375 C 9.75 0.328125 8.492188 0.0820312 7.390625 -0.375 C 6.285156 -0.84375 5.441406 -1.59375 4.859375 -2.625 C 4.335938 -3.59375 4.0625 -4.578125 4.03125 -5.578125 C 4.007812 -6.578125 4 -7.710938 4 -8.984375 L 4 -27.078125 L 9.34375 -27.078125 L 9.34375 -9.296875 C 9.34375 -8.472656 9.347656 -7.726562 9.359375 -7.0625 C 9.378906 -6.40625 9.515625 -5.882812 9.765625 -5.5 C 10.234375 -4.75 10.984375 -4.335938 12.015625 -4.265625 C 13.054688 -4.203125 14.203125 -4.257812 15.453125 -4.4375 Z M 0.390625 -17.0625 L 0.390625 -21.1875 L 15.453125 -21.1875 L 15.453125 -17.0625 Z M 0.390625 -17.0625 "/></g></g></g><g fill="#2d4ed8" fill-opacity="1"><g transform="translate(79.345931, 37.766167)"><g><path d="M 8.625 0.59375 C 7.113281 0.59375 5.832031 0.300781 4.78125 -0.28125 C 3.726562 -0.863281 2.925781 -1.640625 2.375 -2.609375 C 1.832031 -3.585938 1.5625 -4.664062 1.5625 -5.84375 C 1.5625 -6.820312 1.710938 -7.71875 2.015625 -8.53125 C 2.316406 -9.34375 2.804688 -10.054688 3.484375 -10.671875 C 4.160156 -11.296875 5.066406 -11.816406 6.203125 -12.234375 C 6.984375 -12.523438 7.914062 -12.78125 9 -13 C 10.082031 -13.226562 11.3125 -13.441406 12.6875 -13.640625 C 14.0625 -13.847656 15.570312 -14.078125 17.21875 -14.328125 L 15.296875 -13.265625 C 15.296875 -14.515625 14.992188 -15.429688 14.390625 -16.015625 C 13.796875 -16.609375 12.789062 -16.90625 11.375 -16.90625 C 10.59375 -16.90625 9.773438 -16.710938 8.921875 -16.328125 C 8.078125 -15.953125 7.484375 -15.285156 7.140625 -14.328125 L 2.3125 -15.84375 C 2.851562 -17.601562 3.859375 -19.03125 5.328125 -20.125 C 6.804688 -21.226562 8.820312 -21.78125 11.375 -21.78125 C 13.25 -21.78125 14.910156 -21.488281 16.359375 -20.90625 C 17.804688 -20.332031 18.90625 -19.34375 19.65625 -17.9375 C 20.070312 -17.144531 20.316406 -16.359375 20.390625 -15.578125 C 20.472656 -14.796875 20.515625 -13.921875 20.515625 -12.953125 L 20.515625 0 L 15.84375 0 L 15.84375 -4.359375 L 16.515625 -3.453125 C 15.484375 -2.023438 14.367188 -0.992188 13.171875 -0.359375 C 11.972656 0.273438 10.457031 0.59375 8.625 0.59375 Z M 9.765625 -3.609375 C 10.742188 -3.609375 11.570312 -3.78125 12.25 -4.125 C 12.925781 -4.476562 13.460938 -4.875 13.859375 -5.3125 C 14.253906 -5.757812 14.523438 -6.132812 14.671875 -6.4375 C 14.941406 -7.007812 15.097656 -7.675781 15.140625 -8.4375 C 15.191406 -9.207031 15.21875 -9.847656 15.21875 -10.359375 L 16.796875 -9.96875 C 15.210938 -9.707031 13.925781 -9.488281 12.9375 -9.3125 C 11.957031 -9.132812 11.164062 -8.972656 10.5625 -8.828125 C 9.96875 -8.679688 9.441406 -8.523438 8.984375 -8.359375 C 8.460938 -8.148438 8.039062 -7.921875 7.71875 -7.671875 C 7.394531 -7.429688 7.15625 -7.164062 7 -6.875 C 6.851562 -6.59375 6.78125 -6.273438 6.78125 -5.921875 C 6.78125 -5.441406 6.898438 -5.023438 7.140625 -4.671875 C 7.390625 -4.328125 7.734375 -4.0625 8.171875 -3.875 C 8.617188 -3.695312 9.148438 -3.609375 9.765625 -3.609375 Z M 9.765625 -3.609375 "/></g></g></g></g></g></g></svg>